<?xml version="1.0" encoding="utf-8"?>
<!-- Generator: Adobe Illustrator 16.0.0, SVG Export Plug-In . SVG Version: 6.00 Build 0)  -->
<!DOCTYPE svg PUBLIC "-//W3C//DTD SVG 1.1//EN" "http://www.w3.org/Graphics/SVG/1.1/DTD/svg11.dtd">
<svg version="1.1" id="Capa_1" xmlns="http://www.w3.org/2000/svg" xmlns:xlink="http://www.w3.org/1999/xlink" x="0px" y="0px"
	 width="230px" height="123px" viewBox="0 0 230 123" enable-background="new 0 0 230 123" xml:space="preserve">
<g>
	<path fill="#44A3AC" d="M226.521,63.024c-0.041,0-0.08,0-0.121-0.001c-5.115-0.177-13.486-0.456-14.303-0.456
		c-0.012,0-0.02,0-0.025,0c-1.874,0-3.406-1.514-3.42-3.388c-0.012-1.881,1.493-3.415,3.371-3.433
		c1.039-0.029,12.349,0.382,14.613,0.46c1.883,0.064,3.355,1.645,3.291,3.525C229.865,61.575,228.353,63.024,226.521,63.024z"/>
	<g>
		<circle fill="#FFC400" cx="139.93" cy="62.61" r="60.191"/>
		<g>
			<path fill="#FFC400" d="M23.452,39.847c1.453,0,2.632,0.456,3.542,1.362c0.907,0.91,1.361,2.111,1.361,3.61
				c0,1.497-0.454,2.714-1.361,3.642c-0.91,0.932-2.089,1.396-3.542,1.396H10.039v8.239H22.84c1.498,0,2.712,0.466,3.644,1.397
				c0.93,0.931,1.396,2.123,1.396,3.575c0,1.59-0.466,2.815-1.396,3.677c-0.931,0.864-2.146,1.294-3.644,1.294H10.039v11.371h13.686
				c1.499,0,2.702,0.453,3.61,1.363c0.907,0.907,1.361,2.108,1.361,3.608c0,1.591-0.454,2.824-1.361,3.711
				c-0.908,0.886-2.111,1.328-3.61,1.328H4.998c-1.407,0-2.587-0.442-3.54-1.328c-0.954-0.887-1.43-2.12-1.43-3.711V44.819
				c0-1.499,0.476-2.7,1.43-3.61c0.952-0.906,2.133-1.362,3.54-1.362H23.452z"/>
			<path fill="#FFC400" d="M45.651,79.409h13.688c1.496,0,2.7,0.453,3.608,1.363c0.908,0.907,1.36,2.108,1.36,3.608
				c0,1.591-0.453,2.824-1.36,3.711c-0.908,0.886-2.112,1.328-3.608,1.328H40.68c-1.634,0-2.881-0.442-3.744-1.328
				c-0.863-0.887-1.294-2.12-1.294-3.711V44.477c0-1.496,0.477-2.7,1.43-3.608c0.953-0.909,2.134-1.361,3.542-1.361
				c1.587,0,2.824,0.453,3.709,1.361c0.886,0.908,1.328,2.112,1.328,3.608V79.409z"/>
		</g>
		<g>
			<path fill="#FFFFFF" d="M110.547,39.966c1.032,0,1.977,0.324,2.823,0.968c0.85,0.648,1.275,1.634,1.275,2.963v22.266
				c1.701,0.521,2.548,1.794,2.548,3.824c0,0.887-0.22,1.671-0.665,2.356c-0.442,0.685-1.07,1.154-1.883,1.411v2.992
				c0,1.293-0.367,2.298-1.107,3.016c-0.739,0.722-1.716,1.082-2.938,1.082c-1.254,0-2.243-0.36-2.961-1.082
				c-0.719-0.718-1.079-1.723-1.079-3.016v-2.716H95.702c-1.221,0-2.198-0.413-2.937-1.246c-0.739-0.829-1.108-1.781-1.108-2.851
				c0-0.813,0.222-1.589,0.667-2.326l14.679-25.649c0.406-0.666,0.912-1.163,1.522-1.497
				C109.136,40.129,109.808,39.966,110.547,39.966z M102.35,65.889h4.21V59.02L102.35,65.889z"/>
			<path fill="#FFFFFF" d="M122.182,76.801c-0.297-0.295-0.546-0.665-0.751-1.107c-0.2-0.442-0.302-0.961-0.302-1.55
				c0-1.294,0.378-2.3,1.133-3.021c0.761-0.718,1.728-1.078,2.907-1.078c0.481,0,0.971,0.103,1.471,0.304
				c0.499,0.205,0.949,0.508,1.356,0.914c0.591,0.554,1.211,0.971,1.856,1.247s1.449,0.417,2.41,0.417
				c1.991,0,3.49-0.582,4.487-1.745c0.996-1.166,1.491-2.579,1.491-4.239c0-1.994-0.581-3.508-1.743-4.542
				c-1.164-1.035-2.576-1.551-4.235-1.551c-1.221,0-2.209-0.359-2.964-1.081c-0.759-0.721-1.137-1.672-1.137-2.854
				c0-0.368,0.082-0.782,0.25-1.244c0.165-0.462,0.415-0.878,0.748-1.246c0.33-0.369,0.757-0.684,1.271-0.941
				c0.521-0.26,1.129-0.391,1.831-0.391c0.886,0,1.577-0.24,2.077-0.719c0.499-0.48,0.746-1.182,0.746-2.105
				c0-0.849-0.214-1.485-0.634-1.91c-0.427-0.426-0.992-0.639-1.694-0.639c-0.515,0-0.977,0.103-1.38,0.307
				c-0.408,0.204-0.706,0.397-0.888,0.582c-0.667,0.628-1.172,0.988-1.524,1.079c-0.352,0.093-0.804,0.137-1.359,0.137
				c-0.624,0-1.189-0.119-1.687-0.359c-0.499-0.24-0.923-0.553-1.273-0.942c-0.352-0.386-0.618-0.813-0.804-1.274
				c-0.187-0.459-0.278-0.932-0.278-1.412c0-0.737,0.194-1.42,0.581-2.047c0.39-0.63,0.896-1.221,1.524-1.773
				c1.808-1.514,4.007-2.271,6.593-2.271c1.624,0,3.093,0.275,4.403,0.83c1.311,0.556,2.439,1.292,3.379,2.217
				c0.944,0.923,1.661,1.994,2.159,3.212c0.501,1.219,0.75,2.476,0.75,3.768c0,1.368-0.185,2.549-0.554,3.544
				c-0.37,0.999-0.906,1.865-1.608,2.604c1.81,1.034,3.192,2.558,4.157,4.571c0.959,2.012,1.438,4.163,1.438,6.452
				c0,1.959-0.369,3.785-1.108,5.482c-0.738,1.7-1.745,3.188-3.017,4.462c-1.272,1.272-2.771,2.279-4.488,3.018
				s-3.553,1.106-5.511,1.106c-1.96,0-3.805-0.35-5.54-1.051C124.985,79.258,123.473,78.205,122.182,76.801z"/>
			<path fill="#FFFFFF" d="M162.339,39.522c1.293,0,2.514,0.239,3.658,0.719s2.139,1.145,2.991,1.993
				c0.85,0.853,1.522,1.847,2.021,2.993c0.498,1.146,0.745,2.38,0.745,3.712c0,1.293-0.247,2.501-0.745,3.629
				c-0.499,1.128-1.172,2.113-2.021,2.961c-0.853,0.853-1.847,1.523-2.991,2.023s-2.365,0.748-3.658,0.748s-2.502-0.248-3.627-0.748
				c-1.127-0.5-2.118-1.17-2.964-2.023c-0.851-0.848-1.525-1.833-2.021-2.961c-0.501-1.128-0.75-2.335-0.75-3.629
				c0-1.332,0.249-2.566,0.75-3.712c0.495-1.146,1.17-2.14,2.021-2.993c0.846-0.849,1.837-1.513,2.964-1.993
				C159.837,39.761,161.046,39.522,162.339,39.522z M162.339,45.227c-1.072,0-1.946,0.351-2.629,1.053
				c-0.687,0.701-1.025,1.589-1.025,2.659c0,0.995,0.339,1.837,1.025,2.519c0.683,0.683,1.557,1.025,2.629,1.025
				c1.033,0,1.903-0.342,2.605-1.025c0.701-0.682,1.053-1.523,1.053-2.519c0-1.07-0.352-1.958-1.053-2.659
				C164.242,45.578,163.372,45.227,162.339,45.227z M181.509,39.966c0.846,0,1.603,0.275,2.268,0.83s1,1.31,1,2.271
				c0,0.591-0.151,1.164-0.444,1.717l-19.225,34.401c-0.331,0.628-0.754,1.061-1.273,1.3c-0.517,0.241-1.014,0.36-1.495,0.36
				c-0.812,0-1.56-0.295-2.242-0.886c-0.685-0.591-1.024-1.367-1.024-2.326c0-0.223,0.027-0.471,0.08-0.747
				c0.059-0.279,0.178-0.581,0.363-0.914l19.388-34.568c0.295-0.515,0.683-0.884,1.16-1.105
				C180.543,40.076,181.025,39.966,181.509,39.966z M181.783,62.454c1.291,0,2.51,0.242,3.656,0.722
				c1.143,0.479,2.14,1.144,2.991,1.993c0.847,0.849,1.521,1.849,2.021,2.991c0.499,1.145,0.751,2.383,0.751,3.713
				c0,1.293-0.252,2.5-0.751,3.628c-0.499,1.126-1.174,2.113-2.021,2.961c-0.852,0.851-1.849,1.522-2.991,2.022
				c-1.146,0.5-2.365,0.749-3.656,0.749c-1.292,0-2.503-0.249-3.629-0.749c-1.127-0.5-2.113-1.172-2.964-2.022
				c-0.85-0.848-1.522-1.835-2.021-2.961c-0.499-1.128-0.747-2.335-0.747-3.628c0-1.33,0.248-2.568,0.747-3.713
				c0.499-1.143,1.172-2.143,2.021-2.991c0.851-0.85,1.837-1.514,2.964-1.993C179.28,62.696,180.491,62.454,181.783,62.454z
				 M181.783,68.16c-1.072,0-1.949,0.352-2.632,1.054c-0.683,0.7-1.021,1.589-1.021,2.659c0,0.994,0.339,1.836,1.021,2.519
				c0.683,0.682,1.56,1.025,2.632,1.025c1.034,0,1.901-0.344,2.602-1.025c0.7-0.683,1.055-1.524,1.055-2.519
				c0-1.07-0.354-1.959-1.055-2.659C183.685,68.512,182.817,68.16,181.783,68.16z"/>
		</g>
		<path fill="#44A3AC" d="M208.549,46.935c-1.104,0-2.19-0.535-2.846-1.525c-1.037-1.565-0.621-3.672,0.946-4.715
			c0.827-0.551,10.545-6.433,12.483-7.607c1.61-0.973,3.709-0.452,4.684,1.155c0.976,1.611,0.458,3.708-1.154,4.684
			c-4.4,2.66-11.613,7.036-12.233,7.445C209.848,46.75,209.194,46.935,208.549,46.935z"/>
		<path fill="#44A3AC" d="M85.001,19.914c-1.15,0-2.272-0.58-2.913-1.632l0,0c-0.392-0.633-5.085-7.644-7.954-11.915
			c-1.047-1.564-0.63-3.682,0.933-4.732c1.56-1.048,3.681-0.633,4.734,0.931c1.26,1.881,7.593,11.316,8.108,12.164
			c0.981,1.607,0.471,3.706-1.137,4.685C86.218,19.752,85.604,19.914,85.001,19.914z"/>
		<path fill="#44A3AC" d="M76.12,32.798c-0.493,0-0.994-0.107-1.468-0.333c-0.688-0.324-8.439-3.623-13.168-5.63
			c-1.732-0.733-2.542-2.735-1.807-4.471c0.737-1.731,2.74-2.54,4.472-1.808c2.086,0.886,12.544,5.324,13.443,5.755
			c1.699,0.812,2.418,2.845,1.608,4.547C78.615,32.083,77.392,32.798,76.12,32.798z"/>
	</g>
</g>
</svg>
