<?xml version="1.0" encoding="utf-8"?>
<!-- Generator: Adobe Illustrator 16.0.0, SVG Export Plug-In . SVG Version: 6.00 Build 0)  -->
<!DOCTYPE svg PUBLIC "-//W3C//DTD SVG 1.1//EN" "http://www.w3.org/Graphics/SVG/1.1/DTD/svg11.dtd">
<svg version="1.1" id="Capa_1" xmlns="http://www.w3.org/2000/svg" xmlns:xlink="http://www.w3.org/1999/xlink" x="0px" y="0px"
	 width="99.768px" height="84.152px" viewBox="0 0 99.768 84.152" enable-background="new 0 0 99.768 84.152" xml:space="preserve">
<g>
	<path fill-rule="evenodd" clip-rule="evenodd" fill="#FFC400" d="M51.911,8.148c0,1.93,0.012,3.859-0.005,5.789
		c-0.013,1.422-0.815,2.34-1.99,2.334c-1.134-0.01-1.961-0.883-1.971-2.246c-0.031-3.933-0.032-7.869,0-11.799
		C47.956,0.879,48.816-0.01,49.941,0c1.135,0.008,1.947,0.908,1.964,2.25C51.929,4.215,51.911,6.184,51.911,8.148z"/>
	<path fill-rule="evenodd" clip-rule="evenodd" fill="#FFC400" d="M70.124,14.146c-0.092,0.582-0.315,1.115-0.754,1.553
		c-1.651,1.651-3.282,3.321-4.952,4.953c-0.934,0.912-2.084,0.947-2.886,0.168c-0.778-0.756-0.788-1.994,0.079-2.889
		c1.676-1.729,3.395-3.419,5.107-5.109c0.637-0.629,1.406-0.836,2.241-0.463C69.702,12.691,70.029,13.348,70.124,14.146z"/>
	<path fill-rule="evenodd" clip-rule="evenodd" fill="#FFC400" d="M31.85,12.19c0.601-0.026,1.084,0.39,1.533,0.832
		c1.479,1.454,2.956,2.915,4.404,4.401c1,1.027,1.074,2.219,0.251,3.055c-0.812,0.82-2.02,0.72-3.038-0.287
		c-1.531-1.507-3.055-3.023-4.563-4.558c-0.651-0.664-0.861-1.476-0.465-2.343C30.31,12.557,30.926,12.182,31.85,12.19z"/>
	<path fill-rule="evenodd" clip-rule="evenodd" fill="#FFC400" d="M49.877,19.298c1.111-0.023,2.018,0.832,2.017,1.909
		c0,1-0.893,1.908-1.909,1.941c-1.039,0.035-2.021-0.908-2.021-1.941C47.962,20.189,48.832,19.322,49.877,19.298z"/>
	<g>
		<path fill-rule="evenodd" clip-rule="evenodd" fill="#00BCC2" d="M95.239,39.836c-6.546-9.748-15.796-14.242-27.57-13.139
			c-6.542,0.614-12.161,3.357-16.847,7.943c-0.781,0.764-1.145,0.713-1.891-0.012c-5.574-5.43-12.32-8.041-19.971-8.17
			c-3.606,0.067-7.012,0.643-10.311,1.896C4.713,33.66-3.391,48.926,1.369,63.79c3.592,11.224,11.487,18.021,23.203,19.956
			c8.745,1.449,16.492-1.025,23.262-6.676c0.706-0.59,1.238-1.717,2.057-1.747c0.836-0.032,1.359,1.121,2.068,1.702
			c0.145,0.118,0.285,0.236,0.43,0.354c6.32,5.106,13.502,7.394,21.621,6.576c5.527-0.561,10.49-2.575,14.799-6.058
			c6.391-5.16,10.03-11.852,10.816-20.063C100.246,51.322,98.852,45.217,95.239,39.836z M46.686,72.75
			c-11.872,11.809-31.062,9.307-39.48-5.172C0.168,55.482,5.053,39.334,17.589,33.117c3.62-1.799,7.417-2.726,12.039-2.714
			c6.283,0.139,12.167,2.599,17.056,7.464c0.623,0.62,0.563,0.995,0.123,1.662c-3.548,5.379-5.09,11.329-4.663,17.729
			c0.332,4.998,1.857,9.66,4.679,13.838C47.281,71.777,47.293,72.143,46.686,72.75z M70.82,80.2
			c-13.193-0.032-24.926-10.733-24.803-25.214c0.113-13.133,10.644-24.488,24.729-24.601c13.835-0.112,25.174,11.075,25.072,25.037
			C95.83,68.674,84.982,80.232,70.82,80.2z"/>
		<path fill-rule="evenodd" clip-rule="evenodd" fill="#00BCC2" d="M78.811,57.624c-1.045,0.233-1.619,1.175-1.451,2.387
			c0.031,0.222,0.095,0.437,0.12,0.655c0.351,3.283-2.756,5.922-5.884,4.963c-1.594-0.49-2.575-1.629-3.178-3.17
			c-0.507-1.304-1.51-1.77-2.599-1.33c-1.106,0.442-1.47,1.439-1.014,2.771c1.208,3.526,4.397,5.818,8.089,5.821
			c1.838,0.012,3.477-0.563,4.986-1.6c2.717-1.861,4.198-5.791,3.334-8.919C80.875,57.979,79.945,57.367,78.811,57.624z"/>
		<path fill-rule="evenodd" clip-rule="evenodd" fill="#00BCC2" d="M65.144,51.307c-0.543-1.873-2.557-3.225-4.419-2.965
			c-2.232,0.311-3.798,2.035-3.815,4.207c-0.012,1.502,0.702,2.449,1.897,2.559c0.882,0.082,2.23-0.723,2.032-2.219
			c-0.026-0.201-0.062-0.499,0.239-0.531c0.389-0.041,0.422,0.348,0.578,0.578c0.611,0.912,1.572,1.219,2.493,0.791
			C65.059,53.308,65.447,52.357,65.144,51.307z"/>
		<path fill-rule="evenodd" clip-rule="evenodd" fill="#00BCC2" d="M77.971,43.674c-1.967,0.41-3.38,2.107-3.412,4.09
			c-0.023,1.504,0.678,2.496,1.836,2.594c1.232,0.104,1.836-0.541,2.088-2.24c0.026-0.183,0.015-0.398,0.221-0.46
			c0.363-0.112,0.398,0.239,0.533,0.431c0.736,1.063,1.686,1.384,2.632,0.883c0.993-0.525,1.296-1.588,0.792-2.779
			C81.883,44.361,79.867,43.281,77.971,43.674z"/>
		<path fill-rule="evenodd" clip-rule="evenodd" fill="#00BCC2" d="M36.061,59.716c-1.088-0.401-2.111,0.145-2.625,1.404
			c-0.926,2.267-2.461,3.423-4.555,3.419c-2.093-0.002-3.617-1.146-4.559-3.425c-0.527-1.269-1.525-1.803-2.621-1.393
			c-1.029,0.38-1.436,1.422-1.053,2.682c1.057,3.47,4.03,5.751,7.846,6.017c3.829,0.266,7.512-2.299,8.629-6.014
			C37.502,61.152,37.084,60.096,36.061,59.716z"/>
		<path fill-rule="evenodd" clip-rule="evenodd" fill="#00BCC2" d="M38.074,48.371c-1.048,0-1.979,0.959-1.945,2.004
			c0.033,1.023,0.918,1.891,1.936,1.895c1.09,0.002,1.945-0.883,1.918-1.995C39.961,49.23,39.1,48.371,38.074,48.371z"/>
		<path fill-rule="evenodd" clip-rule="evenodd" fill="#00BCC2" d="M21.631,50.377c0.035-1.038-0.9-2.008-1.939-2.012
			c-1.022,0-1.887,0.861-1.91,1.903c-0.023,1.127,0.814,2.001,1.911,2.001C20.713,52.266,21.594,51.407,21.631,50.377z"/>
	</g>
</g>
</svg>
