<?xml version="1.0" encoding="utf-8"?>
<!-- Generator: Adobe Illustrator 16.0.0, SVG Export Plug-In . SVG Version: 6.00 Build 0)  -->
<!DOCTYPE svg PUBLIC "-//W3C//DTD SVG 1.1//EN" "http://www.w3.org/Graphics/SVG/1.1/DTD/svg11.dtd">
<svg version="1.1" id="Capa_1" xmlns="http://www.w3.org/2000/svg" xmlns:xlink="http://www.w3.org/1999/xlink" x="0px" y="0px"
	 width="48px" height="42px" viewBox="0 0 48 42" enable-background="new 0 0 48 42" xml:space="preserve">
<g>
	<path fill="#FFC400" d="M47.611,16.693c0,0-5.225-1.724-7.947-3.146c-1.276-0.71-1.885-1.748-2.006-1.961
		c-1.604-3.216-2.835-10.417-2.835-10.417h0.004c-0.052-0.189-0.104-0.375-0.151-0.568h-0.005c0,0-0.142-0.524-0.479-0.524h-0.003
		c-0.337,0-0.479,0.524-0.479,0.524h-0.004c-0.044,0.192-0.096,0.379-0.146,0.568c0,0-1.232,7.201-2.836,10.417
		c-0.116,0.214-0.73,1.251-2.007,1.961c-2.723,1.422-7.947,3.146-7.947,3.146c-0.086,0.043-0.389,0.229-0.389,0.595
		c0,0.369,0.303,0.552,0.389,0.599c0,0,5.224,1.724,7.947,3.143c1.277,0.71,1.891,1.745,2.007,1.958
		c1.604,3.219,2.836,10.423,2.836,10.423c0.05,0.183,0.102,0.376,0.146,0.565h0.004c0,0,0.143,0.521,0.479,0.521h0.003
		c0.337,0,0.479-0.521,0.479-0.521h0.005c0.047-0.189,0.099-0.382,0.151-0.565h-0.004c0,0,1.231-7.204,2.835-10.423
		c0.121-0.213,0.73-1.248,2.006-1.958c2.722-1.419,7.947-3.143,7.947-3.143C47.697,17.841,48,17.658,48,17.289
		C48,16.923,47.697,16.737,47.611,16.693z"/>
	<path fill="#FFC400" d="M16.296,31.342c0,0-3.127-1.034-4.754-1.882c-0.764-0.427-1.132-1.044-1.2-1.175
		c-0.963-1.922-1.699-6.237-1.699-6.237c-0.026-0.11-0.062-0.226-0.087-0.336c0,0-0.085-0.311-0.288-0.311
		c-0.208,0-0.29,0.311-0.29,0.311H7.973c-0.024,0.11-0.06,0.226-0.086,0.336c0,0-0.738,4.314-1.696,6.237
		c-0.073,0.131-0.44,0.748-1.204,1.175c-1.626,0.848-4.755,1.882-4.755,1.882C0.18,31.369,0,31.48,0,31.699
		c0,0.217,0.18,0.326,0.232,0.357c0,0,3.129,1.032,4.755,1.88c0.764,0.424,1.131,1.05,1.204,1.174
		c0.958,1.922,1.696,6.237,1.696,6.237c0.026,0.109,0.062,0.226,0.086,0.341l0.004-0.006c0,0,0.083,0.317,0.29,0.317
		c0.203,0,0.288-0.317,0.288-0.317v0.006c0.026-0.116,0.062-0.232,0.087-0.341c0,0,0.736-4.314,1.699-6.237
		c0.068-0.125,0.437-0.75,1.2-1.174c1.626-0.848,4.754-1.88,4.754-1.88c0.052-0.031,0.238-0.14,0.238-0.357
		C16.534,31.48,16.349,31.369,16.296,31.342z"/>
</g>
</svg>
