<?xml version="1.0" encoding="utf-8"?>
<!-- Generator: Adobe Illustrator 16.0.0, SVG Export Plug-In . SVG Version: 6.00 Build 0)  -->
<!DOCTYPE svg PUBLIC "-//W3C//DTD SVG 1.1//EN" "http://www.w3.org/Graphics/SVG/1.1/DTD/svg11.dtd">
<svg version="1.1" id="Capa_1" xmlns="http://www.w3.org/2000/svg" xmlns:xlink="http://www.w3.org/1999/xlink" x="0px" y="0px"
	 width="86px" height="81px" viewBox="0 0 86 81" enable-background="new 0 0 86 81" xml:space="preserve">
<g>
	<path fill="#00BCC2" d="M31.937,47.183c-3.935-0.47-7.591-1.97-10.508-4.863c-1.07-1.059-2.121-2.141-3.19-3.197
		c-1.103-1.091-2.405-1.821-3.965-1.924c-0.675-0.045-0.816-0.285-0.811-0.922c0.028-4.173,0.021-8.346,0.012-12.517
		c-0.009-3.872-3.002-6.893-6.779-6.855c-3.737,0.031-6.653,3.042-6.653,6.879C0.04,31.357-0.046,38.935,0.063,46.51
		c0.127,8.688,4.08,15.19,11.635,19.411c2.534,1.418,5.175,2.641,7.785,3.919c0.528,0.257,0.722,0.56,0.712,1.163
		c-0.04,2.567-0.018,5.136-0.018,7.705c0,1.704,0.543,2.263,2.209,2.263c2.781,0,5.562,0,8.343,0c2.782,0,5.562,0,8.344,0
		c1.717,0,2.244-0.518,2.244-2.215c0-6.996-0.113-13.997,0.039-20.993C41.466,52.712,37.957,47.908,31.937,47.183z M37.161,77.594
		c-4.25-0.031-8.5-0.037-12.751,0.004c-0.772,0.008-0.878-0.268-0.866-0.937c0.035-2.343-0.015-4.687,0.026-7.029
		c0.018-1.064-0.388-1.729-1.346-2.198c-2.866-1.401-5.731-2.811-8.55-4.308c-6.659-3.533-10.139-9.12-10.237-16.679
		c-0.097-7.509-0.029-15.022-0.018-22.53c0.003-2.11,1.384-3.6,3.288-3.627c1.952-0.025,3.376,1.47,3.386,3.627
		c0.018,4.462,0,8.922,0.013,13.384c0.001,0.491-0.126,0.803-0.549,1.111c-3.321,2.422-3.829,7.014-0.996,10.03
		c2.806,2.989,5.748,5.847,8.648,8.74c0.758,0.759,1.835,0.765,2.493,0.103c0.707-0.715,0.663-1.715-0.171-2.558
		c-2.747-2.779-5.514-5.535-8.26-8.313c-1.232-1.246-1.478-2.864-0.686-4.211c1.111-1.893,3.5-2.259,5.181-0.741
		c0.997,0.898,1.956,1.852,2.854,2.851c2.188,2.436,4.97,3.874,7.996,4.907c1.963,0.672,3.961,1.209,6.014,1.558
		c3.083,0.523,5.331,3.317,5.357,6.591c0.024,3.21,0.006,6.419,0.006,9.629c0,3.244-0.018,6.484,0.015,9.729
		C38.014,77.384,37.844,77.598,37.161,77.594z"/>
	<path fill="#00BCC2" d="M85.983,35.529c0-3.917,0.003-7.833,0-11.75c-0.003-3.878-2.974-6.898-6.756-6.875
		c-3.734,0.019-6.669,3.027-6.679,6.861c-0.008,3.755,0.002,7.511-0.004,11.267c0,0.672,0.153,1.446-0.13,1.975
		c-0.169,0.314-1.053,0.228-1.608,0.356c-1.815,0.418-3.096,1.66-4.237,2.996c-3.456,4.048-7.865,6.245-13.059,6.941
		c-5.504,0.738-8.968,5.432-8.845,10.572c0.165,7.029,0.039,14.063,0.043,21.093c0.002,1.388,0.602,2.001,1.971,2.001
		c5.722,0.006,11.445,0.006,17.167,0c1.371,0,1.995-0.623,1.999-1.989c0.007-2.601,0.039-5.2-0.022-7.804
		c-0.017-0.774,0.246-1.117,0.917-1.421c1.511-0.69,2.984-1.455,4.453-2.233c1.021-0.544,1.337-1.522,0.845-2.41
		c-0.47-0.847-1.396-1.097-2.405-0.597c-1.975,0.977-3.927,1.996-5.908,2.96c-0.929,0.45-1.285,1.131-1.269,2.149
		c0.038,2.372-0.014,4.75,0.026,7.127c0.015,0.688-0.196,0.849-0.859,0.843c-4.219-0.027-8.439-0.033-12.658,0.006
		c-0.766,0.006-0.952-0.214-0.949-0.966c0.03-6.355,0.02-12.713,0.015-19.071c0-0.741,0.08-1.473,0.314-2.177
		c0.996-2.986,3.159-4.325,6.185-4.813c4.982-0.799,9.518-2.647,13.068-6.452c0.828-0.891,1.691-1.753,2.58-2.586
		c0.886-0.834,1.932-1.241,3.159-0.897c2.629,0.74,3.426,3.715,1.49,5.7c-2.756,2.815-5.558,5.584-8.329,8.386
		c-0.834,0.844-0.883,1.836-0.181,2.558c0.649,0.664,1.739,0.664,2.493-0.091c2.925-2.917,5.893-5.798,8.711-8.815
		c2.779-2.974,2.235-7.557-1.05-9.967c-0.372-0.273-0.557-0.529-0.557-1.007c0.019-4.557,0.009-9.119,0.015-13.676
		c0-0.65,0.14-1.271,0.496-1.832c0.794-1.252,2.295-1.868,3.643-1.481c1.653,0.474,2.531,1.656,2.535,3.507
		c0.013,7.511,0.002,15.027,0.004,22.54c0,3.069-0.708,5.962-2.11,8.688c-0.58,1.128-0.341,2.077,0.601,2.554
		c0.939,0.473,1.846,0.104,2.421-1.017c1.597-3.095,2.438-6.392,2.46-9.885C86.002,43.041,85.983,39.285,85.983,35.529z"/>
	<path fill="#00BCC2" d="M77.101,60.374c-0.912-0.013-1.685,0.777-1.682,1.718c0.003,0.899,0.722,1.666,1.603,1.705
		c0.908,0.041,1.707-0.73,1.727-1.671C78.768,61.178,78.021,60.381,77.101,60.374z"/>
	<path fill="#FFC400" d="M61.884,28.976c3.399-3.883,5.763-8.219,5.776-12.406c0.051-4.169-0.95-7.578-2.586-10.277
		c-4.449-7.333-15.586-8.901-21.443-1.118c-0.515,0.686-0.707,0.709-1.236,0.006c-5.802-7.715-16.477-6.093-20.824,0.246
		c-3.818,5.57-4.24,11.473-1.44,17.587c1.854,4.042,4.899,7.17,8.074,10.169c4.262,4.028,8.831,7.698,13.218,11.576
		c1.252,1.11,1.917,1.101,3.176,0.013c1.792-1.547,3.586-3.094,5.373-4.646C54.08,36.56,58.281,33.091,61.884,28.976z
		 M43.611,41.124c-0.326,0.281-0.571,0.554-1.039,0.141c-5.036-4.45-10.337-8.604-14.957-13.518c-2.227-2.367-4.238-4.917-5.183-8.1
		c-1.385-4.667-0.799-9.035,2.394-12.837c3.33-3.96,10.507-5.147,14.741,0.238c0.634,0.808,1.216,1.645,1.726,2.542
		c1.005,1.763,2.451,1.734,3.474-0.063c0.747-1.313,1.636-2.518,2.715-3.583c4.168-4.128,11.464-3.007,14.755,2.221
		c1.367,2.174,2.005,4.554,2.036,6.452c0.012,4.492-1.481,7.753-3.794,10.707c-3.063,3.91-6.838,7.09-10.544,10.342
		C47.841,37.503,45.717,39.303,43.611,41.124z"/>
</g>
</svg>
