<?xml version="1.0" encoding="utf-8"?>
<!-- Generator: Adobe Illustrator 16.0.0, SVG Export Plug-In . SVG Version: 6.00 Build 0)  -->
<!DOCTYPE svg PUBLIC "-//W3C//DTD SVG 1.1//EN" "http://www.w3.org/Graphics/SVG/1.1/DTD/svg11.dtd">
<svg version="1.1" id="Capa_1" xmlns="http://www.w3.org/2000/svg" xmlns:xlink="http://www.w3.org/1999/xlink" x="0px" y="0px"
	 width="84.156px" height="84.152px" viewBox="0 0 84.156 84.152" enable-background="new 0 0 84.156 84.152" xml:space="preserve">
<g>
	<path fill-rule="evenodd" clip-rule="evenodd" fill="#00BCC2" d="M69.185,30.909c3.771-0.229,7.471,0.021,10.923,1.739
		c1.839,0.915,3.403,2.115,3.933,4.261c0.391,1.582-0.2,2.354-1.836,2.354c-4.072,0.004-8.146,0.004-12.217,0.004
		c-0.327,0-0.65,0-1.086,0c1.114,2.634,2.022,5.228,2.673,7.914c0.856,3.518,1.271,7.087,1.339,10.697
		c0.015,0.78,0.199,1.194,0.942,1.572c4.895,2.492,8.107,6.507,10.165,11.514c0.443,1.073-0.248,1.95-1.5,1.955
		c-3.637,0.015-7.277,0.004-10.917,0.004c-0.257,0-0.514,0-0.77,0c-0.04,0.065-0.074,0.129-0.112,0.19
		c0.216,0.181,0.451,0.342,0.65,0.538c2.106,2.096,2.099,4.928-0.055,6.995c-1.874,1.802-4.226,2.623-6.716,3.092
		c-1.308,0.247-2.632,0.431-3.975,0.405c-1.063-0.021-1.713-0.532-1.726-1.386c-0.014-0.86,0.626-1.397,1.681-1.437
		c2.622-0.105,5.185-0.456,7.511-1.786c0.972-0.555,1.999-1.193,1.979-2.437c-0.019-1.231-1.044-1.867-2.022-2.41
		c-2.526-1.406-5.289-1.761-8.119-1.764c-16.857-0.006-33.718-0.002-50.578-0.002c-2.372,0-4.741-0.032-7.111,0.018
		c-0.728,0.017-0.87-0.209-0.858-0.887c0.036-1.948,0.003-1.948,1.985-1.948c10.415,0,20.832-0.008,31.249,0.015
		c0.756,0.001,1.247-0.199,1.763-0.803c3.589-4.206,8.306-6.347,13.66-7.237c1.317-0.217,2.641-0.401,3.98-0.38
		c0.361,0.006,0.623-0.134,0.897-0.343c2.65-2.014,5.58-3.369,8.927-3.715c0.46-0.049,0.772-0.125,0.74-0.771
		c-0.219-4.227-0.981-8.331-2.453-12.306c-0.244-0.66-0.41-0.721-1.018-0.347c-1.804,1.11-3.817,0.841-5.275-0.701
		c-0.454-0.48-0.656-0.428-1.075,0c-2.032,2.071-4.095,4.119-6.151,6.17c-1.166,1.16-2.109,1.059-2.972-0.354
		c-0.763-1.25-0.911-2.624-0.676-4.05c0.347-2.15,1.283-4.053,2.487-5.835c-0.185-0.335-0.485-0.177-0.718-0.177
		c-2.805-0.013-5.609-0.005-8.414-0.011c-1.498-0.002-2.119-0.792-1.784-2.247c0.438-1.903,1.715-3.126,3.344-4.027
		c3.544-1.965,7.382-2.346,11.343-2.063c0.81,0.061,1.857,0.659,2.346,0.102c0.352-0.401-0.129-1.503-0.187-2.297
		c-0.293-3.923,0.091-7.734,2.026-11.25c0.895-1.628,2.099-2.926,4.002-3.38c1.52-0.36,2.303,0.247,2.305,1.81
		c0.003,3.006,0,6.011,0,9.018c0,0.315,0,0.634,0,1.176c1.989-2.157,4.023-3.91,6.467-5.113c2.032-1,4.121-1.739,6.438-1.181
		c0.355,0.084,0.703,0.219,1.026,0.381c1.778,0.89,1.946,1.913,0.557,3.309c-2.398,2.414-4.799,4.83-7.197,7.245
		c-0.018,0.071-0.038,0.143-0.058,0.215C69.028,30.938,69.108,30.922,69.185,30.909z M51.427,70.049c9.7,0,19.327,0,28.984,0
		c-2.301-4.884-7.726-9.766-14.543-9.741C59.145,60.329,53.728,65.147,51.427,70.049z M67.561,43.642
		c-0.528,0.396-0.959,0.8-1.516,0.919c-0.695,0.146-0.782,0.441-0.563,1.116c1.052,3.245,1.659,6.586,1.856,9.992
		c0.104,1.813,0.094,1.779,1.83,2.166c0.83,0.185,0.98-0.08,0.936-0.856C69.83,52.468,69.132,48.037,67.561,43.642z M40.087,36.362
		c6.057,0,11.99,0,18.018,0C54.107,32.779,43.952,32.788,40.087,36.362z M80.548,36.4c-3.933-3.777-14.85-3.444-17.955,0
		C68.56,36.4,74.479,36.4,80.548,36.4z M60.54,34.225c4.965-3.165,8.339-7.854,12.719-11.696
		C68.37,22.414,61.203,29.399,60.54,34.225z M51.406,64.749c-4.583,0.646-8.484,2.2-11.945,5.356c2.942,0,5.632-0.002,8.325,0
		c0.257,0,0.412-0.08,0.53-0.339C49.102,68.037,50.139,66.454,51.406,64.749z M58.898,17.578c-0.531,0.431-0.773,0.833-0.992,1.243
		c-1.65,3.079-2.017,6.387-1.685,9.799c0.108,1.087,0.401,2.16,0.599,3.239c0.079,0.424,0.387,0.594,0.739,0.729
		c0.177,0.068,0.351,0.055,0.418-0.132c0.316-0.833,0.859-1.67,0.88-2.517C58.949,25.88,58.898,21.82,58.898,17.578z M54.958,39.267
		c-1.243,0-2.303,0.011-3.356-0.009c-0.347-0.007-0.539,0.16-0.739,0.401c-1.133,1.366-2.102,2.833-2.689,4.514
		c-0.249,0.706-0.533,1.434-0.451,2.313C50.157,44.056,52.483,41.732,54.958,39.267z M58.903,39.268
		c-0.724,0-1.433,0.696-1.381,1.415c0.063,0.801,0.537,1.281,1.331,1.358c0.721,0.071,1.425-0.627,1.44-1.358
		C60.313,39.961,59.634,39.272,58.903,39.268z M64.505,39.268c-0.728,0.005-1.433,0.704-1.371,1.424
		c0.066,0.798,0.542,1.28,1.339,1.349c0.724,0.063,1.42-0.635,1.432-1.365C65.917,39.953,65.23,39.267,64.505,39.268z"/>
	<path fill-rule="evenodd" clip-rule="evenodd" fill="#FFC400" d="M22.385,22.436c-3.89-0.017-6.989-3.188-6.96-7.128
		c0.026-3.832,3.193-6.929,7.071-6.91c3.892,0.021,6.99,3.19,6.966,7.127C29.437,19.355,26.265,22.449,22.385,22.436z M26.64,15.432
		c0.001-2.297-1.916-4.217-4.207-4.209c-2.294,0.006-4.203,1.935-4.185,4.229c0.017,2.291,1.957,4.189,4.255,4.162
		C24.746,19.589,26.639,17.677,26.64,15.432z"/>
	<path fill-rule="evenodd" clip-rule="evenodd" fill="#00BCC2" d="M18.261,81.326c3.133,0,6.265-0.004,9.399,0
		c1.144,0.002,1.801,0.522,1.799,1.406c0,0.884-0.657,1.41-1.801,1.41c-6.3,0.001-12.596,0.001-18.896-0.004
		c-1.112,0-1.782-0.571-1.75-1.459c0.033-0.84,0.68-1.352,1.751-1.354C11.928,81.322,15.094,81.326,18.261,81.326z"/>
	<path fill-rule="evenodd" clip-rule="evenodd" fill="#00BCC2" d="M18.317,42.057c0.981-0.068,1.872,0.898,2.761,0.858
		c0.871-0.039,1.735-0.869,2.784-0.86c2.15,0.013,3.99,1.678,4.188,3.805c0.087,0.951-0.387,1.677-1.185,1.807
		c-0.791,0.134-1.467-0.419-1.617-1.378c-0.13-0.838-0.564-1.396-1.416-1.385c-0.849,0.009-1.289,0.569-1.387,1.416
		c-0.097,0.845-0.589,1.361-1.448,1.34c-0.802-0.02-1.272-0.525-1.361-1.329c-0.091-0.844-0.523-1.418-1.373-1.427
		c-0.904-0.008-1.328,0.583-1.437,1.473c-0.105,0.842-0.635,1.315-1.498,1.289c-0.783-0.021-1.315-0.709-1.302-1.591
		C14.059,43.915,15.979,42.068,18.317,42.057z"/>
	<path fill-rule="evenodd" clip-rule="evenodd" fill="#00BCC2" d="M7.066,50.473c1-0.063,1.891,0.88,2.785,0.858
		c0.864-0.021,1.732-0.866,2.779-0.86c2.192,0.011,4.072,1.742,4.203,3.892c0.059,0.945-0.462,1.646-1.277,1.726
		c-0.774,0.074-1.385-0.442-1.525-1.373c-0.128-0.839-0.557-1.402-1.409-1.398c-0.85,0.001-1.296,0.56-1.394,1.405
		c-0.098,0.848-0.582,1.366-1.438,1.354c-0.805-0.011-1.283-0.521-1.371-1.317c-0.09-0.845-0.518-1.423-1.366-1.44
		C6.149,53.3,5.726,53.891,5.605,54.78c-0.116,0.885-0.82,1.419-1.585,1.303c-0.77-0.112-1.255-0.786-1.211-1.685
		C2.909,52.262,4.791,50.486,7.066,50.473z"/>
	<path fill-rule="evenodd" clip-rule="evenodd" fill="#00BCC2" d="M28.043,75.716c2.231,0,4.464-0.006,6.695,0.002
		c1.062,0.004,1.711,0.527,1.733,1.371c0.021,0.888-0.643,1.44-1.766,1.442c-4.431,0.004-8.861,0.004-13.29,0
		c-1.131,0-1.793-0.538-1.782-1.426c0.011-0.882,0.662-1.388,1.814-1.388C23.647,75.712,25.845,75.716,28.043,75.716z"/>
	<path fill-rule="evenodd" clip-rule="evenodd" fill="#00BCC2" d="M7.123,75.716c1.732,0,3.463-0.009,5.194,0.002
		c1.061,0.005,1.704,0.536,1.715,1.388c0.011,0.854-0.636,1.421-1.679,1.424c-3.564,0.008-7.125,0.008-10.688,0
		C0.63,78.526-0.02,77.947,0,77.093c0.019-0.822,0.647-1.366,1.63-1.375C3.461,75.705,5.291,75.716,7.123,75.716z"/>
	<path fill-rule="evenodd" clip-rule="evenodd" fill="#00BCC2" d="M49.099,75.716c1.766,0,3.53-0.009,5.294,0.002
		c1.063,0.005,1.704,0.536,1.712,1.392c0.009,0.854-0.641,1.417-1.685,1.42c-3.561,0.008-7.124,0.008-10.687,0
		c-1.031-0.003-1.682-0.589-1.66-1.441c0.023-0.817,0.651-1.361,1.633-1.37C45.503,75.707,47.302,75.716,49.099,75.716z"/>
	<path fill-rule="evenodd" clip-rule="evenodd" fill="#00BCC2" d="M39.196,84.143c-0.864,0-1.729,0.016-2.591-0.004
		c-0.943-0.023-1.575-0.637-1.543-1.459c0.028-0.776,0.643-1.341,1.544-1.348c1.796-0.017,3.589-0.021,5.383,0
		c0.888,0.011,1.496,0.616,1.494,1.404c0,0.782-0.61,1.375-1.496,1.4C41.058,84.162,40.125,84.143,39.196,84.143z"/>
	<path fill-rule="evenodd" clip-rule="evenodd" fill="#FFC400" d="M15.934,23.383c-0.034,0.311-0.101,0.635-0.351,0.884
		c-0.704,0.701-1.382,1.435-2.125,2.097c-0.631,0.563-1.349,0.552-1.946-0.07c-0.561-0.583-0.573-1.275-0.031-1.875
		c0.689-0.761,1.426-1.481,2.176-2.182c0.429-0.401,0.979-0.406,1.489-0.162C15.668,22.323,15.927,22.776,15.934,23.383z"/>
	<path fill-rule="evenodd" clip-rule="evenodd" fill="#FFC400" d="M14.488,8.907c-0.406-0.046-0.687-0.14-0.907-0.363
		C12.9,7.86,12.198,7.201,11.55,6.489c-0.576-0.631-0.596-1.346,0.014-1.953c0.608-0.609,1.328-0.582,1.956-0.011
		c0.712,0.646,1.385,1.34,2.05,2.036c0.438,0.456,0.478,1.025,0.208,1.571C15.503,8.689,15.012,8.937,14.488,8.907z"/>
	<path fill-rule="evenodd" clip-rule="evenodd" fill="#FFC400" d="M32.428,26.705c-0.459,0-0.794-0.109-1.068-0.388
		c-0.657-0.658-1.335-1.299-1.974-1.971c-0.587-0.625-0.609-1.314-0.045-1.965c0.533-0.616,1.381-0.626,2.032-0.017
		c0.702,0.66,1.375,1.347,2.033,2.053c0.432,0.463,0.437,1.038,0.166,1.577C33.332,26.468,32.903,26.721,32.428,26.705z"/>
	<path fill-rule="evenodd" clip-rule="evenodd" fill="#FFC400" d="M9.792,16.819c-0.496,0-1.002,0.053-1.491-0.011
		c-0.784-0.104-1.279-0.585-1.276-1.395c0.002-0.809,0.492-1.328,1.283-1.383c1.022-0.071,2.061-0.077,3.081,0.005
		c0.737,0.057,1.208,0.574,1.228,1.333c0.024,0.811-0.456,1.316-1.234,1.434C10.864,16.883,10.326,16.819,9.792,16.819z"/>
	<path fill-rule="evenodd" clip-rule="evenodd" fill="#FFC400" d="M35.065,16.825c-0.464,0-0.931,0.027-1.393-0.005
		c-0.846-0.06-1.351-0.524-1.408-1.378c-0.051-0.745,0.55-1.388,1.355-1.42c0.962-0.042,1.926-0.042,2.888,0
		c0.805,0.033,1.41,0.676,1.357,1.42c-0.058,0.852-0.561,1.319-1.406,1.378C35.997,16.852,35.529,16.825,35.065,16.825z"/>
	<path fill-rule="evenodd" clip-rule="evenodd" fill="#FFC400" d="M23.848,2.866c0.001,0.467,0.031,0.931-0.005,1.392
		c-0.064,0.8-0.706,1.402-1.446,1.338c-0.797-0.065-1.302-0.529-1.346-1.333c-0.052-0.992-0.063-1.991,0.005-2.983
		C21.112,0.489,21.633,0.003,22.44,0c0.808-0.003,1.295,0.489,1.394,1.275C23.9,1.797,23.848,2.335,23.848,2.866z"/>
	<path fill-rule="evenodd" clip-rule="evenodd" fill="#FFC400" d="M23.85,28.096c-0.001,0.463,0.027,0.931-0.008,1.392
		c-0.06,0.802-0.689,1.404-1.432,1.354c-0.801-0.057-1.312-0.521-1.358-1.318c-0.059-0.991-0.062-1.992,0.002-2.983
		c0.05-0.794,0.565-1.258,1.37-1.302c0.747-0.042,1.363,0.558,1.419,1.365C23.877,27.097,23.85,27.597,23.85,28.096z"/>
	<path fill-rule="evenodd" clip-rule="evenodd" fill="#FFC400" d="M30.552,8.855c-0.7,0.016-1.125-0.223-1.381-0.695
		c-0.252-0.465-0.321-1.017,0.032-1.413c0.751-0.838,1.534-1.663,2.395-2.387c0.526-0.443,1.195-0.341,1.722,0.154
		c0.503,0.473,0.605,1.127,0.252,1.638c-0.677,0.983-1.586,1.783-2.509,2.543C30.902,8.83,30.633,8.833,30.552,8.855z"/>
	<path fill-rule="evenodd" clip-rule="evenodd" fill="#00BCC2" d="M69.185,30.909c-0.076,0.014-0.156,0.03-0.234,0.05
		c0.02-0.072,0.04-0.144,0.058-0.215C69.067,30.798,69.127,30.853,69.185,30.909z"/>
</g>
</svg>
