<?xml version="1.0" encoding="UTF-8"?>
<svg width="23px" height="21px" viewBox="0 0 23 21" version="1.1" xmlns="http://www.w3.org/2000/svg" xmlns:xlink="http://www.w3.org/1999/xlink">
    <title>Artboard</title>
    <g id="Artboard" stroke="none" stroke-width="1" fill="none" fill-rule="evenodd">
        <g id="Group" transform="translate(0.000000, -0.026173)" fill-rule="nonzero">
            <ellipse id="Oval" fill="#FFC400" cx="8.46663504" cy="11.3859234" rx="8.46663504" ry="8.12167028"></ellipse>
            <path d="M8.20366191,16.3679145 C8.1821641,16.3679145 8.16016635,16.3679145 8.1381686,16.3664146 C7.60972258,16.3484165 7.11577305,16.1064412 6.78980635,15.706982 L3.5346389,11.723389 C2.92270141,10.9744655 3.05968742,9.89157611 3.84010769,9.30463607 C4.62102791,8.71869593 5.74991258,8.8481827 6.36185007,9.59760614 L8.30465159,11.9753632 L19.1100477,0.565028914 C19.7754797,-0.139399121 20.9118636,-0.192893656 21.6467885,0.448040866 C22.3807136,1.08797549 22.435208,2.17786415 21.7687761,2.88179223 L9.53252615,15.8034721 C9.19156098,16.1634354 8.70861032,16.3679145 8.20366191,16.3679145 Z" id="Path" fill="#00BCC2"></path>
        </g>
    </g>
</svg>