<?xml version="1.0" encoding="UTF-8"?>
<svg width="58px" height="55px" viewBox="0 0 58 55" version="1.1" xmlns="http://www.w3.org/2000/svg" xmlns:xlink="http://www.w3.org/1999/xlink">
    <title>Group</title>
    <g id="Page-1" stroke="none" stroke-width="1" fill="none" fill-rule="evenodd">
        <g id="Iconos-redes-sociales-footer" fill="#000000" fill-rule="nonzero">
            <g id="Group">
                <path d="M28.792,0 C12.92,0 0,12.343 0,27.491 C0,42.654 12.92,54.984 28.792,54.984 C44.677,54.984 57.597,42.654 57.597,27.491 C57.598,12.343 44.677,0 28.792,0 Z M28.792,51.816 C14.745,51.816 3.319,40.912 3.319,27.491 C3.319,14.084 14.745,3.167 28.792,3.167 C42.852,3.167 54.278,14.084 54.278,27.491 C54.279,40.912 42.853,51.816 28.792,51.816 Z" id="Shape"></path>
                <path d="M26.344,19.66 L26.344,23.973 L22.73,23.973 L22.73,27.515 L26.343,27.515 L26.343,40.363 L29.956,40.363 L29.956,27.514 L34.193,27.514 L34.756,23.972 L29.955,23.972 L29.955,19.94 C29.955,18.841 30.923,18.035 32.257,18.035 L34.792,18.035 L34.792,14.634 L31.792,14.622 C26.87,14.622 26.344,18.152 26.344,19.66 Z" id="Path"></path>
            </g>
        </g>
    </g>
</svg>