<?xml version="1.0" encoding="UTF-8"?>
<svg width="57px" height="55px" viewBox="0 0 57 55" version="1.1" xmlns="http://www.w3.org/2000/svg" xmlns:xlink="http://www.w3.org/1999/xlink">
    <title>Group</title>
    <g id="Page-1" stroke="none" stroke-width="1" fill="none" fill-rule="evenodd">
        <g id="Iconos-redes-sociales-footer" transform="translate(-101.000000, 0.000000)" fill="#000000" fill-rule="nonzero">
            <g id="Group" transform="translate(101.184000, 0.374000)">
                <path d="M39.546,1.22124533e-15 L17.281,1.22124533e-15 C7.753,1.22124533e-15 0,7.387 0,16.48 L0,37.733 C0,46.826 7.753,54.225 17.281,54.225 L39.546,54.225 C49.063,54.225 56.816,46.826 56.816,37.733 L56.816,16.48 C56.816,7.387 49.063,1.22124533e-15 39.546,1.22124533e-15 Z M53.802,37.733 C53.802,45.236 47.409,51.349 39.546,51.349 L17.281,51.349 C9.406,51.349 3.013,45.236 3.013,37.733 L3.013,16.48 C3.013,8.976 9.406,2.863 17.281,2.863 L39.546,2.863 C47.409,2.863 53.802,8.976 53.802,16.48 L53.802,37.733 Z" id="Shape"></path>
                <path d="M28.403,14.167 C20.931,14.167 14.845,19.964 14.845,27.106 C14.845,34.25 20.931,40.06 28.403,40.06 C35.885,40.06 41.972,34.249 41.972,27.106 C41.972,19.964 35.885,14.167 28.403,14.167 Z M28.403,37.184 C22.585,37.184 17.858,32.672 17.858,27.106 C17.858,21.554 22.585,17.03 28.403,17.03 C34.231,17.03 38.96,21.554 38.96,27.106 C38.96,32.672 34.231,37.184 28.403,37.184 Z" id="Shape"></path>
                <path d="M41.972,9.76 C40.772,9.76 39.804,10.683 39.804,11.817 C39.804,12.974 40.772,13.898 41.972,13.898 C43.171,13.898 44.139,12.975 44.139,11.817 C44.139,10.683 43.171,9.76 41.972,9.76 Z" id="Path"></path>
            </g>
        </g>
    </g>
</svg>