<?xml version="1.0" encoding="utf-8"?>
<!-- Generator: Adobe Illustrator 16.0.0, SVG Export Plug-In . SVG Version: 6.00 Build 0)  -->
<!DOCTYPE svg PUBLIC "-//W3C//DTD SVG 1.1//EN" "http://www.w3.org/Graphics/SVG/1.1/DTD/svg11.dtd">
<svg version="1.1" id="Capa_1" xmlns="http://www.w3.org/2000/svg" xmlns:xlink="http://www.w3.org/1999/xlink" x="0px" y="0px"
	 width="539px" height="43.514px" viewBox="0 0 539 43.514" enable-background="new 0 0 539 43.514" xml:space="preserve">
<g> 
	<g>
		<g>
			<path fill="#00BCC2" d="M16.383,43.291H4.084c-1.285,0-2.299-0.373-3.015-1.105C0.36,41.458,0,40.454,0,39.206V12.901
				c0-1.198,0.396-2.185,1.179-2.93C1.951,9.234,2.914,8.861,4.04,8.861c1.255,0,2.263,0.38,2.993,1.13
				c0.724,0.742,1.091,1.721,1.091,2.91v22.264h8.259c1.191,0,2.173,0.379,2.918,1.121c0.745,0.744,1.122,1.728,1.122,2.92
				c0,1.254-0.379,2.262-1.128,2.991C18.55,42.924,17.57,43.291,16.383,43.291z M4.04,10.387c-0.73,0-1.322,0.225-1.809,0.688
				c-0.474,0.453-0.706,1.05-0.706,1.826v26.305c0,0.849,0.208,1.475,0.636,1.916c0.423,0.431,1.052,0.643,1.922,0.643h12.299
				c0.788,0,1.392-0.218,1.847-0.658c0.449-0.438,0.667-1.061,0.667-1.9c0-0.783-0.22-1.386-0.675-1.842
				c-0.454-0.452-1.055-0.673-1.839-0.673H6.598V12.901c0-0.788-0.215-1.391-0.659-1.846C5.501,10.605,4.88,10.387,4.04,10.387z"/>
			<path fill="#00BCC2" d="M27.111,43.514c-1.122,0-2.082-0.363-2.854-1.078c-0.786-0.732-1.186-1.744-1.186-3.007V12.901
				c0-1.198,0.396-2.185,1.178-2.93c0.773-0.736,1.736-1.109,2.861-1.109c1.256,0,2.263,0.38,2.993,1.13
				c0.724,0.742,1.091,1.721,1.091,2.91v26.528c0,1.252-0.37,2.26-1.099,2.985C29.368,43.145,28.363,43.514,27.111,43.514z
				 M27.111,10.387c-0.73,0-1.322,0.225-1.808,0.688c-0.475,0.453-0.705,1.05-0.705,1.826v26.528c0,0.834,0.229,1.451,0.698,1.889
				c0.486,0.45,1.081,0.671,1.815,0.671c0.845,0,1.469-0.211,1.907-0.652c0.439-0.438,0.652-1.061,0.652-1.907V12.901
				c0-0.788-0.215-1.391-0.658-1.846C28.573,10.605,27.952,10.387,27.111,10.387z"/>
			<path fill="#00BCC2" d="M59.159,43.514c-1.156,0-2.126-0.363-2.882-1.084c-0.768-0.73-1.157-1.74-1.157-3.001v-4.326l-1.88,5.69
				c-0.292,0.945-0.822,1.657-1.571,2.099c-1.491,0.879-3.351,0.789-4.604-0.045c-0.683-0.456-1.177-1.147-1.47-2.062l-1.832-5.545
				v4.188c0,1.252-0.37,2.26-1.099,2.985c-0.729,0.73-1.734,1.1-2.986,1.1c-1.122,0-2.082-0.363-2.854-1.078
				c-0.786-0.732-1.186-1.744-1.186-3.007V12.901c0-1.31,0.434-2.331,1.288-3.035c1.342-1.1,2.852-1.448,4.822-0.372
				c0.828,0.452,1.416,1.167,1.747,2.125l5.923,16.888l5.924-16.891c0.289-0.904,0.83-1.611,1.601-2.082
				c1.698-1.034,3.691-0.842,5.069,0.342c0.817,0.705,1.231,1.721,1.231,3.024v26.528c0,1.252-0.37,2.256-1.098,2.985
				C61.416,43.145,60.412,43.514,59.159,43.514z M56.646,25.623v13.806c0,0.838,0.224,1.457,0.683,1.896
				c0.47,0.447,1.069,0.664,1.831,0.664c0.845,0,1.468-0.211,1.906-0.652c0.439-0.438,0.652-1.064,0.652-1.907V12.901
				c0-0.851-0.229-1.462-0.7-1.868c-0.889-0.765-2.128-0.897-3.279-0.196c-0.456,0.278-0.767,0.691-0.95,1.264l-7.37,21.014
				l-7.362-20.994c-0.209-0.6-0.548-1.021-1.038-1.29c-0.542-0.295-1.007-0.445-1.385-0.445c-0.631,0-1.2,0.215-1.738,0.657
				c-0.492,0.405-0.731,1.013-0.731,1.857v26.528c0,0.834,0.229,1.451,0.698,1.889c0.486,0.45,1.081,0.671,1.815,0.671
				c0.845,0,1.468-0.211,1.906-0.652c0.439-0.438,0.652-1.061,0.652-1.907V25.756l4.808,14.558c0.189,0.59,0.472,1.002,0.866,1.265
				c0.777,0.518,1.976,0.595,2.982,0c0.417-0.245,0.709-0.653,0.893-1.249L56.646,25.623z"/>
			<path fill="#00BCC2" d="M71.727,43.514c-1.122,0-2.082-0.363-2.854-1.078c-0.786-0.732-1.186-1.744-1.186-3.007V13.126
				c0-1.199,0.396-2.186,1.179-2.931c0.773-0.736,1.736-1.108,2.861-1.108h6.06c1.698,0,3.313,0.28,4.799,0.833
				c1.492,0.556,2.814,1.355,3.93,2.374c1.12,1.025,2.019,2.288,2.672,3.753c0.655,1.471,0.987,3.146,0.987,4.979
				c0,1.806-0.332,3.466-0.987,4.934c-0.653,1.466-1.551,2.734-2.668,3.773c-1.124,1.041-2.449,1.842-3.942,2.379
				c-1.482,0.536-3.095,0.809-4.792,0.809h-1.976v6.509c0,1.252-0.37,2.26-1.099,2.985C73.983,43.145,72.979,43.514,71.727,43.514z
				 M71.727,10.612c-0.73,0-1.322,0.225-1.808,0.688c-0.475,0.452-0.706,1.05-0.706,1.826v26.303c0,0.834,0.229,1.451,0.699,1.889
				c0.487,0.45,1.081,0.671,1.815,0.671c0.845,0,1.469-0.211,1.906-0.652c0.44-0.438,0.652-1.061,0.652-1.907v-8.034h3.501
				c1.519,0,2.957-0.241,4.273-0.718c1.301-0.47,2.452-1.162,3.423-2.063c0.965-0.898,1.744-2,2.313-3.276
				c0.566-1.271,0.854-2.722,0.854-4.313c0-1.619-0.288-3.084-0.854-4.358c-0.567-1.272-1.345-2.366-2.308-3.249
				c-0.97-0.885-2.125-1.582-3.434-2.07c-1.314-0.489-2.75-0.737-4.266-0.737H71.727z M77.787,26.322h-3.501V15.685h3.501
				c1.583,0,2.947,0.467,4.056,1.388c1.15,0.957,1.734,2.287,1.734,3.953c0,1.671-0.586,2.994-1.74,3.937
				C80.729,25.864,79.367,26.322,77.787,26.322z M75.811,24.796h1.976c1.237,0,2.246-0.332,3.086-1.018
				c0.792-0.646,1.178-1.546,1.178-2.753c0-1.208-0.387-2.117-1.184-2.78c-0.839-0.696-1.847-1.036-3.081-1.036h-1.976V24.796z"/>
			<path fill="#00BCC2" d="M97.267,43.514c-1.122,0-2.082-0.363-2.854-1.078c-0.786-0.732-1.186-1.744-1.186-3.007V12.901
				c0-1.198,0.396-2.185,1.178-2.93c0.773-0.736,1.736-1.109,2.861-1.109c1.256,0,2.263,0.38,2.993,1.13
				c0.724,0.742,1.091,1.721,1.091,2.91v26.528c0,1.252-0.37,2.26-1.099,2.985C99.524,43.145,98.519,43.514,97.267,43.514z
				 M97.267,10.387c-0.73,0-1.322,0.225-1.808,0.688c-0.475,0.453-0.705,1.05-0.705,1.826v26.528c0,0.834,0.229,1.451,0.698,1.889
				c0.486,0.45,1.081,0.671,1.815,0.671c0.845,0,1.469-0.211,1.907-0.652c0.439-0.438,0.652-1.061,0.652-1.907V12.901
				c0-0.788-0.215-1.391-0.658-1.846C98.729,10.605,98.108,10.387,97.267,10.387z"/>
			<path fill="#00BCC2" d="M127.52,43.514c-0.77,0-1.501-0.212-2.176-0.631c-0.699-0.437-1.234-1.145-1.592-2.113l-2.02-5.604
				h-7.768l-1.974,5.596c-0.687,1.809-2.02,2.753-3.862,2.753c-0.465,0-0.947-0.08-1.43-0.24c-0.495-0.165-0.942-0.415-1.332-0.749
				c-0.397-0.342-0.717-0.766-0.955-1.26c-0.244-0.507-0.368-1.094-0.368-1.746c0-0.238,0.008-0.444,0.026-0.616
				c0.021-0.215,0.088-0.469,0.202-0.772l9.738-26.613c0.651-1.739,1.97-2.656,3.813-2.656c0.864,0,1.645,0.223,2.322,0.662
				c0.692,0.45,1.208,1.118,1.534,1.988l9.698,26.397c0.179,0.469,0.271,0.968,0.271,1.475c0,1.24-0.433,2.256-1.287,3.016
				C129.531,43.139,128.576,43.514,127.52,43.514z M112.887,33.64h9.917l2.381,6.608c0.235,0.635,0.56,1.088,0.964,1.339
				c1.043,0.649,2.253,0.515,3.198-0.325c0.523-0.465,0.776-1.079,0.776-1.878c0-0.324-0.056-0.632-0.174-0.938l-9.699-26.404
				c-0.21-0.561-0.516-0.968-0.934-1.239c-0.432-0.279-0.92-0.416-1.492-0.416c-1.202,0-1.958,0.527-2.383,1.659l-9.738,26.614
				c-0.092,0.244-0.111,0.357-0.115,0.396c-0.014,0.131-0.019,0.283-0.019,0.462c0,0.423,0.073,0.786,0.217,1.084
				c0.148,0.31,0.336,0.561,0.573,0.764c0.236,0.202,0.514,0.356,0.82,0.458c0.327,0.11,0.646,0.164,0.949,0.164
				c1.203,0,1.975-0.557,2.429-1.752L112.887,33.64z M121.329,29.733h-6.972l3.519-9.708L121.329,29.733z M116.533,28.208h2.634
				l-1.304-3.668L116.533,28.208z"/>
			<path fill="#00BCC2" d="M157.862,43.514c-1.156,0-2.125-0.363-2.882-1.084c-0.768-0.73-1.157-1.74-1.157-3.001v-4.326
				l-1.879,5.69c-0.292,0.945-0.822,1.657-1.571,2.099c-1.491,0.879-3.351,0.789-4.603-0.045c-0.684-0.456-1.178-1.147-1.471-2.062
				l-1.832-5.545v4.188c0,1.252-0.37,2.26-1.099,2.985c-0.729,0.73-1.734,1.1-2.986,1.1c-1.122,0-2.082-0.363-2.854-1.078
				c-0.787-0.732-1.186-1.744-1.186-3.007V12.901c0-1.31,0.434-2.331,1.288-3.035c1.343-1.1,2.852-1.448,4.823-0.372
				c0.827,0.452,1.415,1.167,1.746,2.125l5.923,16.888l5.924-16.891c0.289-0.904,0.83-1.611,1.601-2.082
				c1.698-1.034,3.69-0.842,5.069,0.342c0.817,0.705,1.231,1.721,1.231,3.024v26.528c0,1.252-0.37,2.256-1.098,2.985
				C160.119,43.145,159.115,43.514,157.862,43.514z M155.349,25.623v13.806c0,0.838,0.224,1.457,0.683,1.896
				c0.47,0.447,1.068,0.664,1.831,0.664c0.845,0,1.469-0.211,1.906-0.652c0.44-0.438,0.652-1.064,0.652-1.907V12.901
				c0-0.851-0.229-1.462-0.7-1.868c-0.889-0.765-2.129-0.897-3.279-0.196c-0.456,0.278-0.767,0.691-0.95,1.264l-7.37,21.014
				l-7.362-20.994c-0.209-0.6-0.548-1.021-1.038-1.29c-0.542-0.295-1.007-0.445-1.384-0.445c-0.632,0-1.2,0.215-1.738,0.657
				c-0.492,0.405-0.731,1.013-0.731,1.857v26.528c0,0.834,0.229,1.451,0.698,1.889c0.486,0.45,1.081,0.671,1.815,0.671
				c0.845,0,1.468-0.211,1.906-0.652c0.439-0.438,0.652-1.061,0.652-1.907V25.756l4.808,14.558c0.189,0.59,0.472,1.002,0.866,1.265
				c0.778,0.518,1.977,0.595,2.982,0c0.417-0.245,0.709-0.653,0.893-1.249L155.349,25.623z"/>
			<path fill="#00BCC2" d="M183.402,43.964c-2.453,0-4.789-0.468-6.942-1.386c-2.144-0.917-4.044-2.192-5.649-3.799
				c-1.601-1.6-2.886-3.497-3.818-5.643c-0.936-2.155-1.41-4.492-1.41-6.949s0.473-4.801,1.409-6.968
				c0.931-2.158,2.216-4.064,3.819-5.668c1.603-1.603,3.502-2.888,5.645-3.818c4.304-1.872,9.591-1.872,13.894,0
				c2.141,0.93,4.046,2.213,5.663,3.815c1.62,1.604,2.913,3.513,3.845,5.671c0.935,2.165,1.409,4.509,1.409,6.968
				c0,2.46-0.474,4.798-1.41,6.949c-0.933,2.146-2.226,4.045-3.844,5.646c-1.619,1.604-3.526,2.881-5.667,3.796
				C188.193,43.496,185.857,43.964,183.402,43.964z M183.402,9.849c-2.246,0-4.379,0.432-6.338,1.283
				c-1.966,0.855-3.706,2.032-5.174,3.498c-1.465,1.467-2.642,3.214-3.497,5.195c-0.852,1.974-1.285,4.116-1.285,6.363
				s0.433,4.38,1.284,6.34c0.856,1.968,2.033,3.71,3.498,5.174c1.467,1.466,3.206,2.634,5.17,3.474
				c3.927,1.677,8.763,1.677,12.687,0c1.964-0.84,3.712-2.008,5.195-3.478c1.479-1.462,2.662-3.202,3.517-5.17
				c0.851-1.957,1.283-4.091,1.283-6.34s-0.433-4.391-1.285-6.363c-0.854-1.979-2.037-3.726-3.517-5.192
				c-1.482-1.467-3.231-2.646-5.198-3.5C187.784,10.28,185.65,9.849,183.402,9.849z M183.402,37.364
				c-1.561,0-3.042-0.293-4.404-0.866c-1.356-0.575-2.556-1.377-3.563-2.388c-1.008-1.007-1.81-2.207-2.385-3.563
				c-0.576-1.359-0.868-2.826-0.868-4.359c0-1.532,0.292-3.005,0.866-4.379c0.575-1.372,1.377-2.579,2.387-3.589
				c1.007-1.006,2.203-1.816,3.556-2.404c2.725-1.187,6.095-1.187,8.823,0c1.353,0.588,2.555,1.396,3.575,2.4
				c1.023,1.007,1.842,2.214,2.433,3.586c0.592,1.377,0.893,2.852,0.893,4.386c0,1.535-0.301,3.004-0.894,4.365
				c-0.591,1.359-1.409,2.56-2.431,3.564c-1.021,1.004-2.226,1.806-3.581,2.381C186.445,37.071,184.963,37.364,183.402,37.364z
				 M183.402,16.447c-1.354,0-2.633,0.258-3.802,0.767c-1.177,0.513-2.216,1.214-3.086,2.084c-0.868,0.869-1.561,1.911-2.057,3.1
				c-0.497,1.187-0.749,2.461-0.749,3.79c0,1.328,0.251,2.595,0.747,3.764c0.498,1.177,1.19,2.214,2.059,3.08
				c0.868,0.87,1.905,1.562,3.08,2.063c2.344,0.989,5.275,0.989,7.62-0.003c1.177-0.498,2.222-1.191,3.106-2.062
				c0.881-0.869,1.589-1.905,2.102-3.084c0.51-1.17,0.767-2.434,0.767-3.758c0-1.325-0.258-2.598-0.768-3.782
				c-0.512-1.19-1.219-2.234-2.101-3.103c-0.887-0.873-1.934-1.575-3.114-2.089C186.035,16.705,184.756,16.447,183.402,16.447z"/>
			<path fill="#00BCC2" d="M213.296,43.514c-0.955,0-1.849-0.104-2.66-0.316c-0.794-0.205-1.531-0.473-2.187-0.795
				c-0.659-0.318-1.26-0.697-1.783-1.123c-0.506-0.411-0.956-0.828-1.337-1.242c-0.573-0.608-0.946-1.126-1.13-1.573
				c-0.187-0.444-0.282-0.951-0.282-1.501c0-1.211,0.425-2.202,1.265-2.951c1.217-1.081,2.755-1.383,4.323-0.796
				c0.563,0.216,1.058,0.592,1.474,1.115c0.278,0.328,0.606,0.59,0.986,0.786c0.351,0.18,0.8,0.271,1.333,0.271
				c1.159,0,2.04-0.291,2.691-0.897c0.636-0.586,0.945-1.379,0.945-2.424c0-0.461-0.097-0.847-0.296-1.179
				c-0.225-0.374-0.52-0.72-0.875-1.027c-0.174-0.128-0.472-0.308-0.849-0.51c-0.385-0.207-1.024-0.489-1.9-0.841
				c-0.572-0.239-1.185-0.483-1.848-0.734c-0.708-0.268-1.373-0.579-1.976-0.929c-1.218-0.725-2.267-1.81-3.121-3.229
				c-0.862-1.43-1.299-3.118-1.299-5.016c0-1.44,0.261-2.8,0.777-4.041c0.515-1.239,1.235-2.327,2.14-3.231s1.992-1.625,3.231-2.14
				c2.6-1.077,5.908-1.027,8.306,0.155c1.228,0.607,2.322,1.417,3.25,2.407c0.815,0.815,1.237,1.782,1.237,2.855
				c0,1.016-0.345,1.95-1.027,2.775c-0.716,0.868-1.715,1.309-2.966,1.309c-0.771,0-1.372-0.127-1.835-0.39
				c-0.41-0.232-0.827-0.576-1.239-1.021c-0.208-0.231-0.453-0.413-0.735-0.549c-0.643-0.31-1.596-0.284-2.385,0.387
				c-0.429,0.365-0.629,0.837-0.629,1.484c0,0.297,0.076,0.555,0.23,0.788c0.181,0.271,0.391,0.483,0.626,0.632
				c0.441,0.275,0.895,0.514,1.349,0.706c0.484,0.205,0.96,0.396,1.429,0.571c0.742,0.309,1.466,0.608,2.197,0.905
				c0.792,0.323,1.52,0.733,2.168,1.219c1.353,1.032,2.396,2.312,3.104,3.808c0.705,1.486,1.062,3.114,1.062,4.837
				c0,1.492-0.258,2.939-0.766,4.304c-0.513,1.381-1.277,2.614-2.269,3.671c-0.996,1.059-2.245,1.914-3.714,2.536
				C216.841,43.201,215.156,43.514,213.296,43.514z M207.955,34.448c-0.652,0-1.227,0.231-1.76,0.705
				c-0.507,0.45-0.753,1.04-0.753,1.81c0,0.348,0.055,0.654,0.165,0.914c0.078,0.191,0.285,0.533,0.838,1.117
				c0.338,0.369,0.734,0.736,1.183,1.103c0.433,0.351,0.934,0.664,1.491,0.936c0.567,0.276,1.205,0.51,1.9,0.688
				c0.686,0.178,1.452,0.268,2.278,0.268c1.654,0,3.139-0.274,4.415-0.813c1.273-0.542,2.349-1.275,3.199-2.179
				c0.852-0.904,1.508-1.969,1.95-3.154c0.445-1.194,0.67-2.465,0.67-3.774c0-1.495-0.308-2.903-0.915-4.186
				c-0.603-1.273-1.492-2.363-2.646-3.242c-0.539-0.404-1.154-0.749-1.823-1.023c-0.735-0.299-1.461-0.599-2.182-0.899
				c-0.463-0.172-0.959-0.37-1.464-0.584c-0.528-0.225-1.055-0.5-1.565-0.82c-0.421-0.266-0.785-0.626-1.083-1.076
				c-0.324-0.483-0.488-1.034-0.488-1.635c0-1.098,0.393-1.988,1.166-2.646c1.241-1.054,2.863-1.165,4.035-0.599
				c0.462,0.221,0.866,0.523,1.201,0.895c0.297,0.322,0.59,0.567,0.863,0.721c0.155,0.089,0.468,0.193,1.083,0.193
				c0.785,0,1.371-0.247,1.79-0.755c0.457-0.552,0.679-1.142,0.679-1.803c0-0.663-0.265-1.25-0.809-1.794
				c-0.819-0.875-1.765-1.575-2.828-2.1c-2.003-0.988-4.852-1.027-7.045-0.113c-1.054,0.438-1.976,1.046-2.738,1.809
				c-0.763,0.763-1.372,1.685-1.81,2.739c-0.439,1.054-0.661,2.217-0.661,3.455c0,1.617,0.364,3.041,1.08,4.229
				c0.723,1.202,1.594,2.11,2.587,2.7c0.524,0.304,1.111,0.58,1.742,0.817c0.685,0.259,1.313,0.509,1.889,0.751
				c0.93,0.374,1.601,0.672,2.041,0.907c0.459,0.244,0.82,0.47,1.083,0.665c0.521,0.447,0.921,0.918,1.231,1.431
				c0.34,0.571,0.512,1.231,0.512,1.965c0,1.471-0.482,2.666-1.435,3.546c-0.933,0.863-2.187,1.301-3.727,1.301
				c-0.778,0-1.462-0.148-2.031-0.441c-0.552-0.282-1.043-0.679-1.465-1.171c-0.265-0.333-0.533-0.541-0.837-0.658
				C208.619,34.513,208.279,34.448,207.955,34.448z"/>
		</g>
	</g>
	<g>
		<path fill="#FFC400" d="M345.043,9.086c2.451,0,4.803,0.501,7.047,1.504c2.243,1.002,4.114,2.401,5.609,4.196
			c0.27,0.33,0.485,0.659,0.651,0.988c0.165,0.33,0.247,0.718,0.247,1.167c0,1.047-0.309,1.863-0.921,2.446
			c-0.612,0.583-1.413,0.875-2.4,0.875c-0.719,0-1.251-0.119-1.593-0.359c-0.346-0.239-0.607-0.479-0.787-0.718
			c-0.958-1.138-2.109-2.004-3.456-2.603c-1.347-0.599-2.813-0.898-4.397-0.898c-1.468,0-2.837,0.277-4.109,0.83
			c-1.271,0.555-2.377,1.31-3.32,2.267c-0.943,0.958-1.684,2.073-2.221,3.345c-0.539,1.271-0.809,2.625-0.809,4.062
			s0.27,2.791,0.809,4.062c0.537,1.272,1.277,2.381,2.221,3.322c0.943,0.944,2.049,1.684,3.32,2.223
			c1.272,0.539,2.642,0.808,4.109,0.808c1.556,0,2.983-0.283,4.285-0.853c1.303-0.568,2.447-1.392,3.435-2.47
			c0.658-0.747,1.496-1.122,2.514-1.122c0.299,0,0.643,0.053,1.032,0.156c0.388,0.105,0.756,0.287,1.099,0.54
			c0.344,0.256,0.629,0.6,0.854,1.033c0.225,0.433,0.336,0.966,0.336,1.591c0,0.361-0.111,0.767-0.336,1.214
			c-0.226,0.449-0.442,0.792-0.652,1.033c-1.525,1.734-3.365,3.081-5.52,4.04c-2.155,0.957-4.506,1.437-7.047,1.437
			c-2.366,0-4.579-0.443-6.646-1.326c-2.064-0.882-3.866-2.094-5.407-3.635c-1.541-1.54-2.762-3.344-3.658-5.409
			c-0.897-2.065-1.347-4.28-1.347-6.644s0.449-4.586,1.347-6.666c0.896-2.08,2.117-3.89,3.658-5.431
			c1.541-1.541,3.343-2.761,5.407-3.659C340.464,9.535,342.677,9.086,345.043,9.086z"/>
		<path fill="#FFC400" d="M362.952,26.188c0-2.363,0.449-4.586,1.348-6.666c0.896-2.08,2.114-3.89,3.657-5.431
			c1.542-1.541,3.344-2.761,5.408-3.659c2.064-0.897,4.279-1.346,6.643-1.346c2.365,0,4.578,0.449,6.644,1.346
			c2.064,0.898,3.876,2.118,5.432,3.659c1.556,1.542,2.782,3.352,3.68,5.431c0.899,2.08,1.347,4.302,1.347,6.666
			s-0.447,4.578-1.347,6.644c-0.897,2.065-2.124,3.869-3.68,5.409c-1.556,1.541-3.367,2.753-5.432,3.635
			c-2.065,0.883-4.278,1.326-6.644,1.326c-2.363,0-4.578-0.443-6.643-1.326c-2.064-0.882-3.866-2.094-5.408-3.635
			c-1.543-1.54-2.762-3.344-3.657-5.409C363.401,30.766,362.952,28.551,362.952,26.188z M369.551,26.188
			c0,1.437,0.269,2.791,0.807,4.062c0.538,1.272,1.28,2.381,2.222,3.322c0.944,0.944,2.05,1.684,3.322,2.223s2.64,0.808,4.106,0.808
			s2.836-0.269,4.107-0.808c1.272-0.539,2.387-1.278,3.344-2.223c0.959-0.941,1.713-2.05,2.267-3.322
			c0.556-1.271,0.832-2.625,0.832-4.062s-0.276-2.798-0.832-4.084c-0.554-1.287-1.308-2.402-2.267-3.345
			c-0.957-0.942-2.071-1.69-3.344-2.245c-1.271-0.553-2.641-0.83-4.107-0.83s-2.834,0.277-4.106,0.83
			c-1.272,0.555-2.378,1.303-3.322,2.245c-0.941,0.943-1.684,2.058-2.222,3.345C369.819,23.39,369.551,24.751,369.551,26.188z"/>
		<path fill="#FFC400" d="M412.103,9.849c1.525,0,2.947,0.292,4.265,0.875c1.316,0.583,2.446,1.362,3.387,2.334
			c0.944,0.973,1.685,2.08,2.224,3.321c0.539,1.242,0.807,2.536,0.807,3.883c0,1.975-0.51,3.771-1.525,5.386
			c-1.019,1.616-2.515,2.828-4.49,3.636l4.759,8.485c0.331,0.568,0.494,1.165,0.494,1.793c0,0.961-0.337,1.729-1.01,2.313
			c-0.674,0.584-1.43,0.876-2.268,0.876c-0.599,0-1.15-0.128-1.659-0.381c-0.51-0.253-0.942-0.713-1.302-1.371l-5.61-10.233h-1.348
			v8.663c0,1.049-0.292,1.862-0.876,2.446s-1.396,0.876-2.446,0.876c-0.928,0-1.705-0.292-2.333-0.876
			c-0.63-0.584-0.943-1.397-0.943-2.446V13.126c0-0.988,0.313-1.78,0.943-2.379c0.628-0.599,1.405-0.898,2.333-0.898H412.103z
			 M408.825,24.168h3.277c0.566,0,1.101-0.112,1.591-0.336c0.495-0.226,0.93-0.517,1.303-0.876c0.376-0.359,0.667-0.771,0.876-1.235
			c0.209-0.463,0.315-0.949,0.315-1.458c0-0.479-0.106-0.95-0.315-1.414s-0.5-0.875-0.876-1.234
			c-0.373-0.359-0.808-0.644-1.303-0.853c-0.49-0.209-1.024-0.314-1.591-0.314h-3.277V24.168z"/>
		<path fill="#FFC400" d="M443.254,34.402h-8.844l-2.154,6.104c-0.568,1.496-1.618,2.244-3.143,2.244
			c-0.388,0-0.784-0.067-1.189-0.203c-0.405-0.134-0.763-0.336-1.078-0.604c-0.313-0.271-0.569-0.607-0.763-1.01
			c-0.194-0.405-0.292-0.876-0.292-1.415c0-0.209,0.009-0.388,0.023-0.54c0.015-0.148,0.065-0.342,0.158-0.581l9.74-26.618
			c0.535-1.437,1.57-2.155,3.096-2.155c0.718,0,1.353,0.179,1.906,0.538c0.554,0.36,0.966,0.898,1.236,1.617l9.695,26.393
			c0.149,0.391,0.224,0.796,0.224,1.212c0,1.02-0.343,1.833-1.031,2.447c-0.69,0.613-1.469,0.92-2.335,0.92
			c-0.63,0-1.22-0.173-1.773-0.515c-0.554-0.347-0.98-0.921-1.278-1.729L443.254,34.402z M436.431,28.972h4.802l-2.379-6.688
			L436.431,28.972z"/>
		<path fill="#FFC400" d="M473.55,9.849c0.866,0,1.632,0.307,2.29,0.92c0.655,0.613,0.986,1.414,0.986,2.401
			c0,0.749-0.208,1.497-0.628,2.245l-11.671,20.513h8.798c0.957,0,1.733,0.301,2.334,0.897c0.599,0.599,0.899,1.392,0.899,2.381
			c0,1.046-0.301,1.861-0.899,2.446c-0.601,0.584-1.377,0.875-2.334,0.875h-14.542c-0.87,0-1.639-0.285-2.313-0.855
			c-0.674-0.565-1.011-1.328-1.011-2.288c0-0.268,0.04-0.56,0.114-0.876c0.074-0.313,0.214-0.649,0.425-1.01l11.984-21.051h-8.661
			c-0.989,0-1.782-0.307-2.381-0.919c-0.599-0.613-0.897-1.415-0.897-2.402c0-0.988,0.299-1.78,0.897-2.379s1.392-0.898,2.381-0.898
			H473.55z"/>
		<path fill="#FFC400" d="M477.95,26.188c0-2.363,0.446-4.586,1.346-6.666c0.897-2.08,2.116-3.89,3.656-5.431
			c1.543-1.541,3.347-2.761,5.411-3.659c2.064-0.897,4.278-1.346,6.642-1.346c2.365,0,4.579,0.449,6.644,1.346
			c2.065,0.898,3.877,2.118,5.433,3.659c1.555,1.542,2.782,3.352,3.679,5.431c0.9,2.08,1.347,4.302,1.347,6.666
			s-0.446,4.578-1.347,6.644c-0.896,2.065-2.124,3.869-3.679,5.409c-1.556,1.541-3.367,2.753-5.433,3.635
			c-2.064,0.883-4.278,1.326-6.644,1.326c-2.363,0-4.577-0.443-6.642-1.326c-2.064-0.882-3.868-2.094-5.411-3.635
			c-1.54-1.54-2.759-3.344-3.656-5.409C478.396,30.766,477.95,28.551,477.95,26.188z M484.546,26.188
			c0,1.437,0.271,2.791,0.808,4.062c0.54,1.272,1.282,2.381,2.223,3.322c0.944,0.944,2.05,1.684,3.322,2.223s2.64,0.808,4.106,0.808
			c1.466,0,2.837-0.269,4.108-0.808c1.272-0.539,2.387-1.278,3.344-2.223c0.959-0.941,1.713-2.05,2.267-3.322
			c0.554-1.271,0.831-2.625,0.831-4.062s-0.277-2.798-0.831-4.084c-0.554-1.287-1.308-2.402-2.267-3.345
			c-0.957-0.942-2.071-1.69-3.344-2.245c-1.271-0.553-2.643-0.83-4.108-0.83c-1.467,0-2.834,0.277-4.106,0.83
			c-1.272,0.555-2.378,1.303-3.322,2.245c-0.94,0.943-1.683,2.058-2.223,3.345C484.817,23.39,484.546,24.751,484.546,26.188z
			 M500.212,0.153c0.688,0,1.25,0.263,1.684,0.786c0.433,0.524,0.65,1.1,0.65,1.729c0,0.479-0.12,0.919-0.358,1.324
			c-0.241,0.404-0.643,0.696-1.212,0.875l-8.978,2.783c-0.179,0.06-0.375,0.089-0.584,0.089c-0.688,0-1.249-0.253-1.684-0.763
			c-0.432-0.509-0.649-1.077-0.649-1.706c0-0.479,0.135-0.927,0.402-1.347c0.271-0.419,0.703-0.733,1.303-0.942l8.53-2.693
			C499.613,0.199,499.911,0.153,500.212,0.153z"/>
		<path fill="#FFC400" d="M523.821,39.429c0,1.049-0.291,1.862-0.875,2.446c-0.585,0.584-1.397,0.876-2.446,0.876
			c-0.927,0-1.704-0.292-2.333-0.876s-0.945-1.397-0.945-2.446V13.036c0-1.137,0.353-1.99,1.056-2.559
			c0.703-0.568,1.475-0.853,2.313-0.853c0.539,0,1.078,0.128,1.617,0.382c0.536,0.254,0.972,0.667,1.3,1.234l8.753,15.799V12.901
			c0-0.987,0.293-1.779,0.877-2.378c0.583-0.599,1.396-0.898,2.445-0.898c0.956,0,1.743,0.3,2.356,0.898
			c0.614,0.599,0.921,1.391,0.921,2.378v26.707c0,0.99-0.337,1.761-1.01,2.313c-0.673,0.554-1.415,0.831-2.223,0.831
			c-0.629,0-1.219-0.148-1.773-0.449c-0.554-0.299-1.01-0.778-1.37-1.437l-8.662-15.62V39.429z"/>
	</g>
	<g>
		<path fill="#FFC400" d="M242.606,43.013c-1.6,0-2.908-0.539-3.924-1.621c-1.016-1.08-1.524-2.595-1.524-4.539
			c0-1.384,0.238-2.697,0.713-3.94c0.475-1.241,1.14-2.351,1.994-3.322c0.854-0.973,1.837-1.739,2.951-2.303
			c1.113-0.562,2.307-0.843,3.583-0.843c0.756,0,1.464,0.119,2.124,0.356c0.659,0.239,1.188,0.573,1.589,1.006
			c0.399,0.431,0.589,0.94,0.567,1.523c-0.021,0.584-0.205,1.044-0.551,1.378c-0.346,0.336-0.8,0.504-1.361,0.504
			c-0.606,0-1.093-0.185-1.459-0.552c-0.368-0.367-0.659-0.789-0.875-1.267l-0.194-0.551c-0.304-0.712-0.568-1.138-0.795-1.279
			c-0.226-0.141-0.611,0.017-1.15,0.469c-0.583,0.498-1.13,1.168-1.637,2.012c-0.508,0.844-0.914,1.772-1.216,2.788
			c-0.303,1.017-0.454,2.054-0.454,3.114c0,1.621,0.351,2.815,1.054,3.582c0.702,0.768,1.648,1.148,2.837,1.148
			c0.778,0,1.545-0.246,2.302-0.745c0.756-0.497,1.458-1.188,2.107-2.073l0.455,0.322c-0.455,0.843-1.038,1.633-1.751,2.368
			c-0.713,0.736-1.529,1.329-2.448,1.782C244.621,42.787,243.643,43.013,242.606,43.013z"/>
		<path fill="#FFC400" d="M257.293,43.013c-1.125,0-2.151-0.223-3.081-0.664c-0.93-0.443-1.664-1.114-2.204-2.012
			c-0.541-0.896-0.812-2.037-0.812-3.42c0-1.382,0.232-2.702,0.697-3.956c0.465-1.252,1.119-2.372,1.962-3.355
			s1.826-1.755,2.951-2.318c1.124-0.562,2.345-0.843,3.664-0.843c1.145,0,2.167,0.222,3.064,0.664
			c0.897,0.444,1.61,1.108,2.14,1.993c0.529,0.889,0.794,2.023,0.794,3.405c0,1.362-0.232,2.676-0.697,3.94
			c-0.465,1.266-1.114,2.389-1.946,3.372c-0.832,0.982-1.805,1.761-2.918,2.332C259.794,42.727,258.59,43.013,257.293,43.013z
			 M257.682,42.363c0.67,0,1.281-0.306,1.832-0.923s1.032-1.437,1.443-2.464c0.41-1.025,0.724-2.16,0.941-3.406
			c0.215-1.242,0.324-2.479,0.324-3.713c0-1.793-0.184-3.036-0.551-3.727c-0.368-0.692-0.843-1.038-1.426-1.038
			c-0.692,0-1.33,0.303-1.914,0.908c-0.583,0.604-1.091,1.415-1.523,2.432c-0.433,1.017-0.768,2.141-1.006,3.371
			c-0.237,1.234-0.356,2.464-0.356,3.698c0,1.838,0.216,3.106,0.648,3.811C256.525,42.013,257.055,42.363,257.682,42.363z"/>
		<path fill="#FFC400" d="M268.058,42.754l-0.292-0.227l2.497-11.933c0.194-0.843-0.108-1.447-0.908-1.815l-0.551-0.259l0.032-0.324
			l6.031-1.783l0.291,0.259l-0.745,3.923c1.124-1.275,2.27-2.285,3.437-3.031c1.168-0.745,2.271-1.119,3.308-1.119
			c0.691,0,1.265,0.211,1.72,0.633c0.452,0.422,0.679,1.075,0.679,1.961c0,0.454-0.042,0.925-0.128,1.41
			c-0.087,0.486-0.195,0.989-0.325,1.509l-1.719,6.905c-0.086,0.346-0.152,0.632-0.194,0.859c-0.044,0.229-0.064,0.429-0.064,0.601
			c0,0.454,0.185,0.681,0.551,0.681c0.604,0,1.374-0.486,2.303-1.46l0.324,0.324c-0.541,0.801-1.253,1.524-2.142,2.172
			c-0.885,0.649-1.868,0.974-2.949,0.974c-0.713,0-1.265-0.166-1.654-0.503c-0.389-0.333-0.583-0.805-0.583-1.409
			c0-0.456,0.054-0.923,0.162-1.413c0.107-0.485,0.228-0.986,0.356-1.507l1.265-5.057c0.173-0.691,0.313-1.308,0.422-1.849
			c0.107-0.54,0.162-1.038,0.162-1.491c0-0.391-0.087-0.664-0.26-0.826c-0.173-0.163-0.41-0.243-0.713-0.243
			c-0.52,0-1.13,0.227-1.832,0.679c-0.702,0.456-1.476,1.168-2.318,2.141l-0.908,4.087c-0.237,1.145-0.465,2.291-0.681,3.436
			c-0.216,1.146-0.433,2.303-0.647,3.471L268.058,42.754z"/>
		<path fill="#FFC400" d="M298.826,43.013c-1.621,0-2.939-0.53-3.955-1.587c-1.017-1.062-1.524-2.563-1.524-4.509
			c0-1.382,0.237-2.702,0.714-3.956c0.474-1.252,1.14-2.372,1.993-3.355c0.855-0.983,1.843-1.755,2.968-2.318
			c1.123-0.562,2.345-0.843,3.663-0.843c1.361,0,2.404,0.309,3.129,0.924c0.724,0.617,1.086,1.434,1.086,2.448
			c0,0.844-0.394,1.676-1.183,2.497c-0.79,0.823-1.898,1.562-3.324,2.22c-1.426,0.662-3.102,1.163-5.025,1.509
			c0.021,1.492,0.346,2.583,0.972,3.274c0.629,0.693,1.493,1.039,2.596,1.039c0.93,0,1.781-0.256,2.561-0.763
			c0.779-0.51,1.438-1.108,1.977-1.8l0.325,0.227c-0.432,0.843-0.989,1.643-1.669,2.398c-0.682,0.757-1.466,1.379-2.351,1.865
			C300.89,42.769,299.906,43.013,298.826,43.013z M302.457,27.32c-0.498,0-1.031,0.216-1.604,0.648
			c-0.575,0.433-1.114,1.021-1.622,1.767c-0.508,0.747-0.93,1.6-1.265,2.562c-0.335,0.961-0.535,1.983-0.6,3.064
			c2.378-0.649,4.069-1.501,5.075-2.562c1.004-1.06,1.507-2.258,1.507-3.6c0-0.649-0.142-1.122-0.422-1.427
			C303.246,27.472,302.889,27.32,302.457,27.32z"/>
		<path fill="#FFC400" d="M309.98,43.013c-0.713,0-1.281-0.185-1.702-0.55c-0.423-0.367-0.633-0.897-0.633-1.589
			c0-0.391,0.043-0.861,0.13-1.412c0.086-0.551,0.216-1.258,0.39-2.121l1.848-8.951c0.173-0.822,0.319-1.567,0.438-2.237
			c0.12-0.669,0.254-1.427,0.405-2.27c0.151-0.864-0.194-1.447-1.036-1.75l-0.552-0.195l0.064-0.323l6.354-1.816l0.195,0.228
			l-3.988,18.805c-0.064,0.325-0.119,0.611-0.16,0.857c-0.045,0.251-0.065,0.463-0.065,0.635c0,0.475,0.205,0.713,0.616,0.713
			c0.54,0,1.329-0.486,2.365-1.46l0.325,0.259c-0.541,0.802-1.222,1.532-2.044,2.19C312.109,42.684,311.125,43.013,309.98,43.013z"
			/>
	</g>
</g>
</svg>
