<?xml version="1.0" encoding="UTF-8"?>
<svg width="297px" height="85px" viewBox="0 0 297 85" version="1.1" xmlns="http://www.w3.org/2000/svg" xmlns:xlink="http://www.w3.org/1999/xlink">
    <title>Logo</title>
    <g id="Logo" stroke="none" stroke-width="1" fill="none" fill-rule="evenodd">
        <path d="M32.3073,5.1911 C28.4893,2.3821 24.3693,0.9781 19.9423,0.9781 C15.5673,0.9781 12.1153,2.2291 9.5843,4.7351 C7.0543,7.2411 5.7873,10.6271 5.7873,14.8941 L5.7873,22.1281 L1.6133,22.1281 C0.6333,22.1281 0.1433,22.6441 0.1433,23.6801 L0.1433,32.7821 C0.1433,33.8161 0.6333,34.3351 1.6133,34.3351 L5.7873,34.3351 L5.7873,61.2891 C5.7873,62.3231 6.2643,62.8411 7.2183,62.8411 L17.5583,62.8411 C18.5903,62.8411 19.1083,62.3231 19.1083,61.2891 L19.1083,34.3351 L26.2223,34.3351 C27.1773,34.3351 27.6543,33.8161 27.6543,32.7821 L27.6543,23.6801 C27.6543,22.6441 27.1773,22.1281 26.2223,22.1281 L19.1083,22.1281 L19.1083,18.1511 C19.1083,16.5351 19.4653,15.3831 20.1803,14.6921 C20.8953,14.0071 21.7973,13.6601 22.8823,13.6601 C23.9683,13.6601 25.3463,14.0451 27.0173,14.8121 C27.3373,14.9181 27.5223,14.9741 27.5743,14.9741 C27.8923,14.9741 28.1463,14.8381 28.3293,14.5721 L32.6243,7.0601 C32.8363,6.7431 32.9373,6.4231 32.9213,6.1031 C32.9093,5.7901 32.7043,5.4831 32.3073,5.1911" id="Fill-1" fill="#FFC400"></path>
        <path d="M245.4059,1.7735 L235.1479,1.7735 C234.1139,1.7735 233.5959,2.2885 233.5959,3.3255 L233.5959,61.2895 C233.5959,62.3225 234.1139,62.8415 235.1479,62.8415 L245.4059,62.8415 C246.4099,62.8415 246.9149,62.3225 246.9149,61.2895 L246.9149,3.3255 C246.9149,2.2885 246.4099,1.7735 245.4059,1.7735" id="Fill-3" fill="#FFC400"></path>
        <path d="M203.2967,50.9633 C198.7947,50.9633 195.1447,47.1493 195.1447,42.4403 C195.1447,37.7313 198.7947,33.9133 203.2967,33.9133 C207.8017,33.9133 211.4527,37.7313 211.4527,42.4403 C211.4527,47.1493 207.8017,50.9633 203.2967,50.9633 M223.3377,1.7733 L213.0017,1.7733 C211.9677,1.7733 211.4527,2.2883 211.4527,3.3253 L211.4527,12.9713 L211.4527,23.3753 C208.7747,22.0113 205.7647,21.2423 202.5817,21.2423 C191.3857,21.2423 182.3087,30.7323 182.3087,42.4403 C182.3087,54.1463 191.3857,63.6363 202.5817,63.6363 C205.7697,63.6363 208.7837,62.8653 211.4667,61.4943 C211.5347,62.3853 212.0387,62.8413 213.0017,62.8413 L223.3377,62.8413 C224.3227,62.8413 224.8117,62.3223 224.8117,61.2893 L224.8117,3.3253 C224.8117,2.2883 224.3227,1.7733 223.3377,1.7733" id="Fill-5" fill="#FFC400"></path>
        <path d="M64.3498,22.6864 C63.0168,21.8754 61.1618,21.4334 58.7988,21.3504 C58.7898,21.3394 58.7848,21.3344 58.7848,21.3344 C58.5728,21.3294 58.3738,21.3374 58.1688,21.3374 C58.1078,21.3374 58.0508,21.3344 57.9918,21.3344 C57.9448,21.3344 57.8978,21.3394 57.8508,21.3394 C52.6878,21.4304 49.4008,23.4484 47.9718,24.5764 L47.9718,23.6804 C47.9718,22.6444 47.4668,22.1274 46.4598,22.1274 L36.2048,22.1274 C35.1678,22.1274 34.6528,22.6444 34.6528,23.6804 L34.6528,61.2894 C34.6528,62.3224 35.1678,62.8414 36.2048,62.8414 L46.4598,62.8414 C47.4668,62.8414 47.9718,62.3224 47.9718,61.2894 L47.9718,44.4324 C47.9718,41.2794 48.7788,38.8224 50.3978,37.0564 C52.0128,35.2954 54.0678,34.4144 56.5608,34.4144 C57.7238,34.4144 58.9168,34.6374 60.1388,35.0884 C60.3498,35.1944 60.6158,35.2484 60.9318,35.2484 C61.4608,35.2484 61.8458,34.9974 62.0838,34.4914 L64.8298,24.9904 C64.9868,24.5134 65.0478,24.0714 65.0078,23.6594 C64.9678,23.2504 64.7478,22.9234 64.3498,22.6864" id="Fill-7" fill="#FFC400"></path>
        <path d="M162.5412,21.376 C162.2022,21.36 161.8712,21.334 161.5202,21.334 C161.1862,21.334 160.8722,21.35 160.5522,21.364 C152.9302,21.656 149.4292,25.314 149.4292,25.314 L149.4292,23.68 C149.4292,22.645 148.9262,22.128 147.9212,22.128 L137.6632,22.128 C136.6292,22.128 136.1122,22.645 136.1122,23.68 L136.1122,61.289 C136.1122,62.323 136.6292,62.841 137.6632,62.841 L147.9212,62.841 C148.9262,62.841 149.4292,62.323 149.4292,61.289 L149.4292,41.093 C149.4292,39.318 150.1532,37.693 151.5962,36.223 C153.0402,34.751 154.7162,34.018 156.6282,34.018 C158.8562,34.018 160.5492,34.772 161.7162,36.28 C162.8802,37.794 163.4632,39.753 163.4632,42.165 L163.4632,61.289 C163.4632,62.323 163.9542,62.841 164.9362,62.841 L175.2722,62.841 C176.3072,62.841 176.8222,62.323 176.8222,61.289 L176.8222,39.465 C176.8222,36.691 176.5162,34.237 175.9212,32.079 C173.2242,23.066 165.3582,21.606 162.5412,21.376" id="Fill-9" fill="#FFC400"></path>
        <path d="M294.3867,22.1278 L284.0487,22.1278 C283.0137,22.1278 282.4987,22.6448 282.4987,23.6798 L282.4987,43.0418 C282.4987,45.0298 281.8547,46.7108 280.5687,48.0888 C279.2837,49.4668 277.5407,50.1598 275.3447,50.1598 C273.1157,50.1598 271.4307,49.4028 270.2927,47.8898 C269.1517,46.3798 268.5847,44.4168 268.5847,42.0088 L268.5847,23.6798 C268.5847,22.6448 268.0657,22.1278 267.0317,22.1278 L256.6937,22.1278 C255.7147,22.1278 255.2267,22.6448 255.2267,23.6798 L255.2267,44.6708 C255.2267,50.5288 256.5427,55.0208 259.1807,58.1498 C261.8167,61.2788 265.5737,62.8418 270.4517,62.8418 C270.6237,62.8418 270.7927,62.8308 270.9597,62.8278 C271.2087,62.8348 271.4487,62.8588 271.6987,62.8588 C275.8997,62.8658 279.7087,61.7278 282.4987,59.8778 L282.4987,61.4498 C282.4987,62.6408 282.3317,63.7688 282.0007,64.8288 C281.6677,65.8868 281.1377,66.8868 280.4087,67.8318 C279.6797,68.7718 278.6547,69.5198 277.3287,70.0768 C276.0027,70.6338 274.4537,70.9088 272.6787,70.9088 C270.9037,70.9088 269.2467,70.6128 267.7077,70.0158 C266.1687,69.4208 264.9087,68.6068 263.9307,67.5708 C263.6647,67.3028 263.4007,67.1748 263.1377,67.1748 C262.7377,67.1748 262.3807,67.4108 262.0637,67.8878 L256.7727,74.9628 C256.2167,75.6558 256.2447,76.3028 256.8537,76.9158 C258.5737,78.8778 260.8967,80.4778 263.8107,81.7248 C266.7277,82.9698 269.7887,83.5938 272.9957,83.5938 C279.7807,83.5938 285.2877,81.3948 289.5147,76.9958 C293.7397,72.5928 295.8567,66.9478 295.8567,60.0568 L295.8567,23.6798 C295.8567,22.6448 295.3667,22.1278 294.3867,22.1278" id="Fill-11" fill="#FFC400"></path>
        <path d="M101.6719,37.1745 C103.2519,33.6625 106.3479,31.2755 109.9099,31.2755 C113.4729,31.2755 116.5669,33.6625 118.1439,37.1745 L101.6719,37.1745 Z M109.9079,21.2415 C98.7139,21.2415 89.6369,30.7325 89.6369,42.4405 C89.6369,54.1455 98.7139,63.6365 109.9079,63.6365 C117.8759,63.6365 124.7599,58.8235 128.0729,51.8335 C128.7519,50.5155 127.5959,50.4275 127.5959,50.4275 L117.1519,50.4275 C115.5509,50.3225 115.0169,51.3675 115.0169,51.3675 L115.0079,51.3525 C114.2949,52.2615 113.5189,52.7595 113.0859,52.9785 C112.0949,53.4135 111.0269,53.6625 109.9099,53.6625 C105.9529,53.6625 102.5799,50.7165 101.2159,46.5575 L106.8909,46.5575 L118.6029,46.5575 L128.6189,46.5575 C129.0059,46.5315 129.7439,46.3385 129.9519,45.4135 C130.0859,44.4375 130.1789,43.4515 130.1789,42.4405 C130.1789,30.7325 121.1039,21.2415 109.9079,21.2415 L109.9079,21.2415 Z" id="Fill-13" fill="#FFC400"></path>
        <path d="M83.3867,4.3699 L82.9517,4.3439 C81.7097,4.3439 80.7627,4.8939 79.9307,5.3789 C79.6957,5.5109 79.4527,5.6539 79.1897,5.7689 C78.4487,6.0939 77.7537,6.2349 76.9027,6.2369 C76.0347,6.2209 75.3227,6.0609 74.5367,5.7129 C74.2637,5.5899 74.0147,5.4489 73.7637,5.3059 C73.0037,4.8799 72.0547,4.3439 70.7567,4.3439 L70.7477,4.3439 L70.4537,4.3589 C69.4207,4.4329 68.4947,4.9339 67.8477,5.7619 C66.8707,7.0219 66.7027,8.8279 67.3807,10.7179 C68.3557,13.4639 71.8797,16.2669 76.7447,16.3069 L76.8957,16.3069 C81.8237,16.3069 85.1927,13.5439 86.2357,10.9749 C87.0377,9.0059 86.9227,7.1189 85.9237,5.7929 C85.2867,4.9549 84.3397,4.4219 83.3867,4.3699" id="Fill-15" fill="#FFC400"></path>
        <path d="M82.4992,22.2234 C82.2592,22.2404 82.0542,22.2964 82.0542,22.2964 C80.6152,22.7994 78.6432,23.1244 76.8682,23.1664 C75.0912,23.1244 73.1202,22.7994 71.6812,22.2964 C71.6812,22.2964 71.4772,22.2404 71.2372,22.2234 C71.0262,22.2264 70.4282,22.3034 70.2692,23.0394 C70.2352,23.2044 70.2072,23.3894 70.2072,23.6194 L70.2072,61.2894 C70.2072,62.3224 70.7252,62.8414 71.7592,62.8414 L81.9752,62.8414 C83.0112,62.8414 83.5282,62.3224 83.5282,61.2894 L83.5282,23.6194 C83.5282,23.3894 83.5012,23.2044 83.4672,23.0394 C83.3072,22.3034 82.7062,22.2264 82.4992,22.2234" id="Fill-17" fill="#FFC400"></path>
    </g>
</svg>