<?xml version="1.0" encoding="UTF-8"?>
<svg width="305px" height="168px" viewBox="0 0 305 168" version="1.1" xmlns="http://www.w3.org/2000/svg" xmlns:xlink="http://www.w3.org/1999/xlink">
    <title>Logo sonrisa</title>
    <g id="Logo-sonrisa" stroke="none" stroke-width="1" fill="none" fill-rule="evenodd">
        <path d="M251.6968,1.17452681 L245.0818,0.8577 C226.1528,0.8577 211.5178,8.39345745 198.8578,15.0649767 C195.2178,16.8969438 191.5578,18.9604032 187.5018,20.5291044 C176.1658,25.0382126 165.5868,26.8792578 152.5658,27.0453876 C139.3178,26.7730437 128.4418,24.6070014 116.3868,19.8427976 C112.1358,18.1016119 108.3158,16.0299822 104.5508,14.023715 C92.8478,8.11112754 78.4468,0.8577 58.5598,0.8577 L58.3898,0.8577 L53.9058,0.8577 C38.0758,2.04511968 23.8608,8.83102342 14.0058,20.3729606 C-0.8702,37.886493 -3.4922,62.9239813 7.0188,89.2296847 C21.8428,127.409585 75.6418,166.324814 150.1258,166.8577 L152.4468,166.8577 C227.8738,166.8577 279.3068,128.602451 295.3138,92.8700156 C307.4938,65.3741692 305.7628,39.1928362 290.5308,20.8041718 C280.8608,9.26405032 266.3448,1.88716018 251.6968,1.17452681" id="Fill-1" fill="#FFC400"></path>
    </g>
</svg>