<?xml version="1.0" encoding="UTF-8"?>
<svg width="2801px" height="1693px" viewBox="0 0 2801 1693" version="1.1" xmlns="http://www.w3.org/2000/svg" xmlns:xlink="http://www.w3.org/1999/xlink">
    <title>icono seleccion menu</title>
    <g id="Page-1" stroke="none" stroke-width="1" fill="none" fill-rule="evenodd">
        <g id="icono-seleccion-menu" transform="translate(-0.000000, 0.000000)" fill="#FFC400" fill-rule="nonzero">
            <path d="M2323.48263,2.9 L2260.88263,0 C2085.68263,0 1952.18263,76.9 1833.58263,145.2 C1800.28263,163.7 1766.18263,184 1728.58263,200.8 C1623.08263,246.6 1525.48263,266.9 1405.78263,266.9 C1281.98263,264 1182.68263,243.2 1070.98263,193.5 C1032.58263,176.5 996.282627,155.5 960.282627,134.8 C853.582627,74.7 719.782627,0 536.182627,0 L535.182627,0 L493.382627,1.1 C347.082627,12.9 216.182627,81.4 124.182627,200.4 C-13.5173732,378 -38.5173732,633.1 58.2826268,901.3 C196.182627,1289.9 694.682627,1687.2 1382.58263,1692.4 L1404.08263,1692.4 C2101.58263,1692.4 2577.68263,1302.4 2725.68263,937.1 C2838.48263,658 2823.58263,391.7 2682.08263,204.2 C2592.18263,86.1 2457.78263,9.8 2323.48263,2.9 Z" id="Path"></path>
        </g>
    </g>
</svg>